<?xml version="1.0" encoding="UTF-8"?>
<!--Generator: Apple Native CoreSVG 175-->
<!DOCTYPE svg
PUBLIC "-//W3C//DTD SVG 1.1//EN"
       "http://www.w3.org/Graphics/SVG/1.1/DTD/svg11.dtd">
<svg version="1.1" xmlns="http://www.w3.org/2000/svg" xmlns:xlink="http://www.w3.org/1999/xlink" width="3300" height="2200">
 <!--glyph: "", point size: 100.0, font version: "17.3d3e1", template writer version: "65.1"-->
 <g id="Notes">
  <rect height="2200" id="artboard" style="fill:white;opacity:1" width="3300" x="0" y="0"/>
  <line style="fill:none;stroke:black;opacity:1;stroke-width:0.5;" x1="263" x2="3036" y1="292" y2="292"/>
  <text style="stroke:none;fill:black;font-family:sans-serif;font-size:13;font-weight:bold;" transform="matrix(1 0 0 1 263 322)">Weight/Scale Variations</text>
  <text style="stroke:none;fill:black;font-family:sans-serif;font-size:13;text-anchor:middle;" transform="matrix(1 0 0 1 559.711 322)">Ultralight</text>
  <text style="stroke:none;fill:black;font-family:sans-serif;font-size:13;text-anchor:middle;" transform="matrix(1 0 0 1 856.422 322)">Thin</text>
  <text style="stroke:none;fill:black;font-family:sans-serif;font-size:13;text-anchor:middle;" transform="matrix(1 0 0 1 1153.13 322)">Light</text>
  <text style="stroke:none;fill:black;font-family:sans-serif;font-size:13;text-anchor:middle;" transform="matrix(1 0 0 1 1449.84 322)">Regular</text>
  <text style="stroke:none;fill:black;font-family:sans-serif;font-size:13;text-anchor:middle;" transform="matrix(1 0 0 1 1746.56 322)">Medium</text>
  <text style="stroke:none;fill:black;font-family:sans-serif;font-size:13;text-anchor:middle;" transform="matrix(1 0 0 1 2043.27 322)">Semibold</text>
  <text style="stroke:none;fill:black;font-family:sans-serif;font-size:13;text-anchor:middle;" transform="matrix(1 0 0 1 2339.98 322)">Bold</text>
  <text style="stroke:none;fill:black;font-family:sans-serif;font-size:13;text-anchor:middle;" transform="matrix(1 0 0 1 2636.69 322)">Heavy</text>
  <text style="stroke:none;fill:black;font-family:sans-serif;font-size:13;text-anchor:middle;" transform="matrix(1 0 0 1 2933.4 322)">Black</text>
  <line style="fill:none;stroke:black;opacity:1;stroke-width:0.5;" x1="263" x2="3036" y1="1903" y2="1903"/>
  <g transform="matrix(1 0 0 1 263 1933)">
   <path d="M9.24805 0.830078Q10.8691 0.830078 12.2949 0.214844Q13.7207-0.400391 14.8096-1.49414Q15.8984-2.58789 16.5186-4.01367Q17.1387-5.43945 17.1387-7.05078Q17.1387-8.66211 16.5186-10.0879Q15.8984-11.5137 14.8047-12.6074Q13.7109-13.7012 12.2852-14.3164Q10.8594-14.9316 9.23828-14.9316Q7.62695-14.9316 6.20117-14.3164Q4.77539-13.7012 3.69141-12.6074Q2.60742-11.5137 1.9873-10.0879Q1.36719-8.66211 1.36719-7.05078Q1.36719-5.43945 1.9873-4.01367Q2.60742-2.58789 3.69629-1.49414Q4.78516-0.400391 6.21094 0.214844Q7.63672 0.830078 9.24805 0.830078ZM9.24805-0.654297Q7.91992-0.654297 6.7627-1.14746Q5.60547-1.64062 4.73145-2.51953Q3.85742-3.39844 3.36426-4.56055Q2.87109-5.72266 2.87109-7.05078Q2.87109-8.37891 3.35938-9.54102Q3.84766-10.7031 4.72168-11.582Q5.5957-12.4609 6.75293-12.9541Q7.91016-13.4473 9.23828-13.4473Q10.5762-13.4473 11.7334-12.9541Q12.8906-12.4609 13.7695-11.582Q14.6484-10.7031 15.1465-9.54102Q15.6445-8.37891 15.6445-7.05078Q15.6445-5.72266 15.1514-4.56055Q14.6582-3.39844 13.7842-2.51953Q12.9102-1.64062 11.748-1.14746Q10.5859-0.654297 9.24805-0.654297ZM5.6543-7.05078Q5.6543-6.72852 5.85938-6.52832Q6.06445-6.32812 6.40625-6.32812L8.51562-6.32812L8.51562-4.20898Q8.51562-3.88672 8.71094-3.67676Q8.90625-3.4668 9.23828-3.4668Q9.56055-3.4668 9.77051-3.67676Q9.98047-3.88672 9.98047-4.20898L9.98047-6.32812L12.0898-6.32812Q12.4219-6.32812 12.627-6.52832Q12.832-6.72852 12.832-7.05078Q12.832-7.38281 12.627-7.58789Q12.4219-7.79297 12.0898-7.79297L9.98047-7.79297L9.98047-9.90234Q9.98047-10.2344 9.77051-10.4443Q9.56055-10.6543 9.23828-10.6543Q8.90625-10.6543 8.71094-10.4443Q8.51562-10.2344 8.51562-9.90234L8.51562-7.79297L6.40625-7.79297Q6.06445-7.79297 5.85938-7.58789Q5.6543-7.38281 5.6543-7.05078Z"/>
  </g>
  <g transform="matrix(1 0 0 1 281.867 1933)">
   <path d="M11.709 2.91016Q13.75 2.91016 15.5518 2.12891Q17.3535 1.34766 18.7305-0.0292969Q20.1074-1.40625 20.8887-3.20801Q21.6699-5.00977 21.6699-7.05078Q21.6699-9.0918 20.8887-10.8936Q20.1074-12.6953 18.7305-14.0723Q17.3535-15.4492 15.5469-16.2305Q13.7402-17.0117 11.6992-17.0117Q9.6582-17.0117 7.85645-16.2305Q6.05469-15.4492 4.68262-14.0723Q3.31055-12.6953 2.5293-10.8936Q1.74805-9.0918 1.74805-7.05078Q1.74805-5.00977 2.5293-3.20801Q3.31055-1.40625 4.6875-0.0292969Q6.06445 1.34766 7.86621 2.12891Q9.66797 2.91016 11.709 2.91016ZM11.709 1.25Q9.98047 1.25 8.47656 0.605469Q6.97266-0.0390625 5.83496-1.17676Q4.69727-2.31445 4.05762-3.81836Q3.41797-5.32227 3.41797-7.05078Q3.41797-8.7793 4.05762-10.2832Q4.69727-11.7871 5.83008-12.9297Q6.96289-14.0723 8.4668-14.7119Q9.9707-15.3516 11.6992-15.3516Q13.4277-15.3516 14.9316-14.7119Q16.4355-14.0723 17.5781-12.9297Q18.7207-11.7871 19.3652-10.2832Q20.0098-8.7793 20.0098-7.05078Q20.0098-5.32227 19.3701-3.81836Q18.7305-2.31445 17.5928-1.17676Q16.4551-0.0390625 14.9463 0.605469Q13.4375 1.25 11.709 1.25ZM7.17773-7.05078Q7.17773-6.69922 7.41211-6.47461Q7.64648-6.25 8.01758-6.25L10.8887-6.25L10.8887-3.36914Q10.8887-2.99805 11.1133-2.76855Q11.3379-2.53906 11.6895-2.53906Q12.0605-2.53906 12.29-2.76855Q12.5195-2.99805 12.5195-3.36914L12.5195-6.25L15.4004-6.25Q15.7715-6.25 16.001-6.47461Q16.2305-6.69922 16.2305-7.05078Q16.2305-7.42188 16.001-7.65137Q15.7715-7.88086 15.4004-7.88086L12.5195-7.88086L12.5195-10.752Q12.5195-11.1328 12.29-11.3623Q12.0605-11.5918 11.6895-11.5918Q11.3379-11.5918 11.1133-11.3574Q10.8887-11.123 10.8887-10.752L10.8887-7.88086L8.01758-7.88086Q7.63672-7.88086 7.40723-7.65137Q7.17773-7.42188 7.17773-7.05078Z"/>
  </g>
  <g transform="matrix(1 0 0 1 305.646 1933)">
   <path d="M14.9707 5.66406Q17.0605 5.66406 18.96 5.01465Q20.8594 4.36523 22.4512 3.19336Q24.043 2.02148 25.2197 0.429688Q26.3965-1.16211 27.0459-3.06641Q27.6953-4.9707 27.6953-7.05078Q27.6953-9.14062 27.0459-11.04Q26.3965-12.9395 25.2197-14.5312Q24.043-16.123 22.4512-17.2998Q20.8594-18.4766 18.9551-19.126Q17.0508-19.7754 14.9609-19.7754Q12.8711-19.7754 10.9717-19.126Q9.07227-18.4766 7.48535-17.2998Q5.89844-16.123 4.72168-14.5312Q3.54492-12.9395 2.90039-11.04Q2.25586-9.14062 2.25586-7.05078Q2.25586-4.9707 2.90527-3.06641Q3.55469-1.16211 4.72656 0.429688Q5.89844 2.02148 7.49023 3.19336Q9.08203 4.36523 10.9814 5.01465Q12.8809 5.66406 14.9707 5.66406ZM14.9707 3.84766Q13.1641 3.84766 11.5283 3.2959Q9.89258 2.74414 8.53516 1.74805Q7.17773 0.751953 6.17676-0.610352Q5.17578-1.97266 4.62891-3.6084Q4.08203-5.24414 4.08203-7.05078Q4.08203-8.86719 4.62891-10.5029Q5.17578-12.1387 6.17188-13.501Q7.16797-14.8633 8.52539-15.8594Q9.88281-16.8555 11.5186-17.4023Q13.1543-17.9492 14.9609-17.9492Q16.7773-17.9492 18.4131-17.4023Q20.0488-16.8555 21.4111-15.8594Q22.7734-14.8633 23.7695-13.501Q24.7656-12.1387 25.3174-10.5029Q25.8691-8.86719 25.8691-7.05078Q25.8789-5.24414 25.332-3.6084Q24.7852-1.97266 23.7842-0.610352Q22.7832 0.751953 21.4209 1.74805Q20.0586 2.74414 18.4229 3.2959Q16.7871 3.84766 14.9707 3.84766ZM9.19922-7.05078Q9.19922-6.66992 9.45801-6.4209Q9.7168-6.17188 10.1172-6.17188L14.0625-6.17188L14.0625-2.2168Q14.0625-1.81641 14.3115-1.55762Q14.5605-1.29883 14.9512-1.29883Q15.3516-1.29883 15.6104-1.55273Q15.8691-1.80664 15.8691-2.2168L15.8691-6.17188L19.8242-6.17188Q20.2246-6.17188 20.4785-6.4209Q20.7324-6.66992 20.7324-7.05078Q20.7324-7.46094 20.4785-7.71484Q20.2246-7.96875 19.8242-7.96875L15.8691-7.96875L15.8691-11.9141Q15.8691-12.3242 15.6104-12.583Q15.3516-12.8418 14.9512-12.8418Q14.5605-12.8418 14.3115-12.583Q14.0625-12.3242 14.0625-11.9141L14.0625-7.96875L10.1172-7.96875Q9.70703-7.96875 9.45312-7.71484Q9.19922-7.46094 9.19922-7.05078Z"/>
  </g>
  <text style="stroke:none;fill:black;font-family:sans-serif;font-size:13;font-weight:bold;" transform="matrix(1 0 0 1 263 1953)">Design Variations</text>
  <text style="stroke:none;fill:black;font-family:sans-serif;font-size:13;" transform="matrix(1 0 0 1 263 1971)">Symbols are supported in up to nine weights and three scales.</text>
  <text style="stroke:none;fill:black;font-family:sans-serif;font-size:13;" transform="matrix(1 0 0 1 263 1989)">For optimal layout with text and other symbols, vertically align</text>
  <text style="stroke:none;fill:black;font-family:sans-serif;font-size:13;" transform="matrix(1 0 0 1 263 2007)">symbols with the adjacent text.</text>
  <line style="fill:none;stroke:#00AEEF;stroke-width:0.5;opacity:1.0;" x1="776" x2="776" y1="1919" y2="1933"/>
  <g transform="matrix(1 0 0 1 776 1933)">
   <path d="M3.31055 0.15625Q3.70117 0.15625 3.91602-0.00976562Q4.13086-0.175781 4.26758-0.585938L5.52734-4.0332L11.2891-4.0332L12.5488-0.585938Q12.6855-0.175781 12.9004-0.00976562Q13.1152 0.15625 13.4961 0.15625Q13.8867 0.15625 14.1162-0.0585938Q14.3457-0.273438 14.3457-0.644531Q14.3457-0.869141 14.2383-1.17188L9.6582-13.3691Q9.48242-13.8184 9.17969-14.043Q8.87695-14.2676 8.4082-14.2676Q7.5-14.2676 7.17773-13.3789L2.59766-1.16211Q2.49023-0.859375 2.49023-0.634766Q2.49023-0.263672 2.70996-0.0537109Q2.92969 0.15625 3.31055 0.15625ZM6.00586-5.51758L8.37891-12.0898L8.42773-12.0898L10.8008-5.51758Z"/>
  </g>
  <line style="fill:none;stroke:#00AEEF;stroke-width:0.5;opacity:1.0;" x1="793.197" x2="793.197" y1="1919" y2="1933"/>
  <text style="stroke:none;fill:black;font-family:sans-serif;font-size:13;font-weight:bold;" transform="matrix(1 0 0 1 776 1953)">Margins</text>
  <text style="stroke:none;fill:black;font-family:sans-serif;font-size:13;" transform="matrix(1 0 0 1 776 1971)">Leading and trailing margins on the left and right side of each symbol</text>
  <text style="stroke:none;fill:black;font-family:sans-serif;font-size:13;" transform="matrix(1 0 0 1 776 1989)">can be adjusted by modifying the x-location of the margin guidelines.</text>
  <text style="stroke:none;fill:black;font-family:sans-serif;font-size:13;" transform="matrix(1 0 0 1 776 2007)">Modifications are automatically applied proportionally to all</text>
  <text style="stroke:none;fill:black;font-family:sans-serif;font-size:13;" transform="matrix(1 0 0 1 776 2025)">scales and weights.</text>
  <g transform="matrix(1 0 0 1 1289 1933)">
   <path d="M2.8418 1.86523L4.54102 3.57422Q5.18555 4.22852 5.90332 4.17969Q6.62109 4.13086 7.31445 3.35938L18.0078-8.42773L17.041-9.4043L6.42578 2.27539Q6.16211 2.57812 5.89355 2.61719Q5.625 2.65625 5.27344 2.30469L4.10156 1.14258Q3.75 0.791016 3.79395 0.522461Q3.83789 0.253906 4.14062-0.0195312L15.6152-10.8203L14.6387-11.7871L3.04688-0.898438Q2.30469-0.214844 2.25098 0.498047Q2.19727 1.21094 2.8418 1.86523ZM9.25781-16.3281Q8.94531-16.0254 8.90625-15.6348Q8.86719-15.2441 9.04297-14.9512Q9.21875-14.6777 9.55566-14.541Q9.89258-14.4043 10.3809-14.5215Q11.4746-14.7754 12.5977-14.7314Q13.7207-14.6875 14.7949-13.9844L14.209-12.5293Q13.9551-11.9043 14.0674-11.4404Q14.1797-10.9766 14.5801-10.5664L16.875-8.25195Q17.2363-7.88086 17.5781-7.82227Q17.9199-7.76367 18.3398-7.8418L19.4043-8.03711L20.0684-7.36328L20.0293-6.80664Q20-6.43555 20.1221-6.12305Q20.2441-5.81055 20.6055-5.44922L21.3672-4.70703Q21.7285-4.3457 22.1533-4.33105Q22.5781-4.31641 22.9297-4.66797L25.8398-7.58789Q26.1914-7.93945 26.1816-8.35449Q26.1719-8.76953 25.8105-9.13086L25.0391-9.89258Q24.6875-10.2539 24.3799-10.3857Q24.0723-10.5176 23.7109-10.4883L23.1348-10.4395L22.4902-11.0742L22.7344-12.1973Q22.832-12.6172 22.6953-12.9834Q22.5586-13.3496 22.1191-13.7891L19.9219-15.9766Q18.6719-17.2168 17.2607-17.8369Q15.8496-18.457 14.4189-18.4814Q12.9883-18.5059 11.665-17.959Q10.3418-17.4121 9.25781-16.3281ZM10.752-15.957Q11.6602-16.6211 12.7002-16.9043Q13.7402-17.1875 14.8047-17.085Q15.8691-16.9824 16.8701-16.5137Q17.8711-16.0449 18.7012-15.2051L21.1328-12.793Q21.3086-12.6172 21.3525-12.4512Q21.3965-12.2852 21.3379-12.0312L21.0156-10.5469L22.5195-9.0625L23.5059-9.12109Q23.6914-9.13086 23.7891-9.09668Q23.8867-9.0625 24.0332-8.91602L24.6094-8.33984L22.168-5.89844L21.5918-6.47461Q21.4453-6.62109 21.4062-6.71875Q21.3672-6.81641 21.377-7.01172L21.4453-7.98828L19.9512-9.47266L18.4277-9.21875Q18.1836-9.16992 18.042-9.2041Q17.9004-9.23828 17.7148-9.41406L15.7129-11.416Q15.5176-11.5918 15.4932-11.7529Q15.4688-11.9141 15.5859-12.1875L16.4648-14.2773Q15.293-15.3711 13.8281-15.791Q12.3633-16.2109 10.8398-15.7617Q10.7227-15.7324 10.6885-15.8057Q10.6543-15.8789 10.752-15.957Z"/>
  </g>
  <text style="stroke:none;fill:black;font-family:sans-serif;font-size:13;font-weight:bold;" transform="matrix(1 0 0 1 1289 1953)">Exporting</text>
  <text style="stroke:none;fill:black;font-family:sans-serif;font-size:13;" transform="matrix(1 0 0 1 1289 1971)">Symbols should be outlined when exporting to ensure the</text>
  <text style="stroke:none;fill:black;font-family:sans-serif;font-size:13;" transform="matrix(1 0 0 1 1289 1989)">design is preserved when submitting to Xcode.</text>
  <text id="template-version" style="stroke:none;fill:black;font-family:sans-serif;font-size:13;text-anchor:end;" transform="matrix(1 0 0 1 3036 1933)">Template v.3.0</text>
  <text style="stroke:none;fill:black;font-family:sans-serif;font-size:13;text-anchor:end;" transform="matrix(1 0 0 1 3036 1951)">Requires Xcode 13 or greater</text>
  <text id="descriptive-name" style="stroke:none;fill:black;font-family:sans-serif;font-size:13;text-anchor:end;" transform="matrix(1 0 0 1 3036 1969)">Generated from custom.puzzlepiece.extension</text>
  <text style="stroke:none;fill:black;font-family:sans-serif;font-size:13;text-anchor:end;" transform="matrix(1 0 0 1 3036 1987)">Typeset at 100 points</text>
  <text style="stroke:none;fill:black;font-family:sans-serif;font-size:13;" transform="matrix(1 0 0 1 263 726)">Small</text>
  <text style="stroke:none;fill:black;font-family:sans-serif;font-size:13;" transform="matrix(1 0 0 1 263 1156)">Medium</text>
  <text style="stroke:none;fill:black;font-family:sans-serif;font-size:13;" transform="matrix(1 0 0 1 263 1586)">Large</text>
 </g>
 <g id="Guides">
  <g id="H-reference" style="fill:#27AAE1;stroke:none;" transform="matrix(1 0 0 1 339 696)">
   <path d="M0.993347 0L3.6377 0L29.3282-67.1326L30.0301-67.1326L30.0301-70.459L28.1227-70.459ZM11.6882-24.4797L46.9818-24.4797L46.2311-26.7288L12.4382-26.7288ZM55.1193 0L57.7637 0L30.6381-70.459L29.4327-70.459L29.4327-67.1326Z"/>
  </g>
  <line id="Baseline-S" style="fill:none;stroke:#27AAE1;opacity:1;stroke-width:0.5;" x1="263" x2="3036" y1="696" y2="696"/>
  <line id="Capline-S" style="fill:none;stroke:#27AAE1;opacity:1;stroke-width:0.5;" x1="263" x2="3036" y1="625.541" y2="625.541"/>
  <g id="H-reference" style="fill:#27AAE1;stroke:none;" transform="matrix(1 0 0 1 339 1126)">
   <path d="M0.993347 0L3.6377 0L29.3282-67.1326L30.0301-67.1326L30.0301-70.459L28.1227-70.459ZM11.6882-24.4797L46.9818-24.4797L46.2311-26.7288L12.4382-26.7288ZM55.1193 0L57.7637 0L30.6381-70.459L29.4327-70.459L29.4327-67.1326Z"/>
  </g>
  <line id="Baseline-M" style="fill:none;stroke:#27AAE1;opacity:1;stroke-width:0.5;" x1="263" x2="3036" y1="1126" y2="1126"/>
  <line id="Capline-M" style="fill:none;stroke:#27AAE1;opacity:1;stroke-width:0.5;" x1="263" x2="3036" y1="1055.54" y2="1055.54"/>
  <g id="H-reference" style="fill:#27AAE1;stroke:none;" transform="matrix(1 0 0 1 339 1556)">
   <path d="M0.993347 0L3.6377 0L29.3282-67.1326L30.0301-67.1326L30.0301-70.459L28.1227-70.459ZM11.6882-24.4797L46.9818-24.4797L46.2311-26.7288L12.4382-26.7288ZM55.1193 0L57.7637 0L30.6381-70.459L29.4327-70.459L29.4327-67.1326Z"/>
  </g>
  <line id="Baseline-L" style="fill:none;stroke:#27AAE1;opacity:1;stroke-width:0.5;" x1="263" x2="3036" y1="1556" y2="1556"/>
  <line id="Capline-L" style="fill:none;stroke:#27AAE1;opacity:1;stroke-width:0.5;" x1="263" x2="3036" y1="1485.54" y2="1485.54"/>
  <line id="left-margin-Regular-M" style="fill:none;stroke:#00AEEF;stroke-width:0.5;opacity:1.0;" x1="1379.5" x2="1379.5" y1="1030.78" y2="1150.12"/>
  <line id="right-margin-Regular-M" style="fill:none;stroke:#00AEEF;stroke-width:0.5;opacity:1.0;" x1="1520.19" x2="1520.19" y1="1030.78" y2="1150.12"/>
 </g>
 <g id="Symbols">
  <g id="Black-L" transform="matrix(1 0 0 1 2839.03 1556)">
   <path d="M16.084 7.31331Q16.084 17.4008 22.0762 23.3424Q28.0685 29.284 38.3972 29.284L116.971 29.284Q127.279 29.284 133.271 23.3424Q139.264 17.4008 139.264 7.31331L139.264-9.80558Q139.264-10.6349 139.791-10.842Q140.318-11.0489 141.227-10.5969Q143.342-9.44287 145.935-8.86347Q148.528-8.28411 151.484-8.28411Q158.096-8.28411 164.032-11.5362Q169.967-14.7881 173.729-20.8374Q177.491-26.8867 177.491-35.3122Q177.491-43.7586 173.729-49.8261Q169.967-55.8936 164.032-59.1169Q158.096-62.3404 151.484-62.3404Q148.528-62.3404 145.935-61.7708Q143.342-61.2013 141.227-60.0264Q140.318-59.5951 139.791-59.8319Q139.264-60.0688 139.264-60.8385L139.264-78.0129Q139.264-88.1588 133.271-94.0712Q127.279-99.9836 116.971-99.9836L38.3972-99.9836Q28.0685-99.9836 22.0762-94.0712Q16.084-88.1588 16.084-78.0129L16.084-50.5741Q16.084-45.2297 19.367-41.8032Q22.6499-38.3765 27.5113-38.3765Q30.4212-38.3765 32.5622-39.3026Q34.7031-40.2286 36.5069-41.5407Q38.4565-42.9731 40.4901-44.0278Q42.5236-45.0824 45.0441-45.0824Q49.1888-45.0824 51.9371-42.4137Q54.6855-39.745 54.6855-35.3277Q54.6855-30.9106 51.9371-28.2419Q49.1888-25.5732 45.0441-25.5732Q42.5236-25.5732 40.4901-26.6278Q38.4565-27.6825 36.5069-29.1149Q34.7031-30.427 32.5622-31.353Q30.4212-32.2789 27.5113-32.2789Q22.6499-32.2789 19.367-28.8524Q16.084-25.4259 16.084-20.0813ZM33.7288 6.67835L33.7288-9.50125Q33.7288-10.7873 34.3908-10.8329Q35.0527-10.8783 35.9821-10.4471Q38.0571-9.35551 40.5559-8.82761Q43.0546-8.29966 45.9491-8.29966Q52.5611-8.29966 58.4964-11.5517Q64.4316-14.8037 68.1828-20.8425Q71.9342-26.8814 71.9342-35.3277Q71.9342-43.7742 68.1828-49.8423Q64.4316-55.9103 58.4964-59.1331Q52.5611-62.3559 45.9491-62.3559Q43.0546-62.3559 40.5559-61.828Q38.0571-61.3001 35.9821-60.2085Q35.0527-59.7771 34.3908-59.8519Q33.7288-59.9266 33.7288-61.1543L33.7288-77.378Q33.7288-79.7228 35.0296-81.0308Q36.3304-82.3388 38.558-82.3388L116.81-82.3388Q119.038-82.3388 120.328-81.0308Q121.619-79.7228 121.619-77.378L121.619-50.5914Q121.619-45.247 124.902-41.804Q128.185-38.361 133.046-38.361Q135.956-38.361 138.098-39.2975Q140.239-40.2339 142.042-41.5252Q143.991-42.9575 146.025-44.0123Q148.058-45.0668 150.579-45.0668Q154.724-45.0668 157.472-42.3976Q160.22-39.7282 160.22-35.3122Q160.22-30.8951 157.472-28.2264Q154.724-25.5576 150.579-25.5576Q148.058-25.5576 146.025-26.6122Q143.991-27.6669 142.042-29.0994Q140.239-30.4102 138.098-31.3362Q135.956-32.2622 133.046-32.2622Q128.185-32.2622 124.902-28.8199Q121.619-25.3775 121.619-20.0526L121.619 6.67835Q121.619 9.0232 120.328 10.3312Q119.038 11.6393 116.81 11.6393L38.558 11.6393Q36.3304 11.6393 35.0296 10.3312Q33.7288 9.0232 33.7288 6.67835Z"/>
  </g>
  <g id="Heavy-L" transform="matrix(1 0 0 1 2543.22 1556)">
   <path d="M16.084 7.19328Q16.084 17.0186 21.7896 22.669Q27.4954 28.3193 37.5619 28.3193L115.975 28.3193Q126.011 28.3193 131.717 22.669Q137.423 17.0186 137.423 7.19328L137.423-11.2625Q137.423-12.0903 137.953-12.3194Q138.484-12.5485 139.387-12.0468Q141.7-10.6811 144.507-9.89259Q147.314-9.10418 150.548-9.10418Q157.008-9.10418 162.74-12.2771Q168.471-15.4499 172.076-21.3152Q175.681-27.1806 175.681-35.241Q175.681-43.3317 172.076-49.2015Q168.471-55.0712 162.74-58.2245Q157.008-61.3779 150.548-61.3779Q147.314-61.3779 144.507-60.6018Q141.7-59.8257 139.387-58.4297Q138.484-57.9581 137.953-58.2123Q137.423-58.4666 137.423-59.2441L137.423-77.8929Q137.423-87.7628 131.717-93.3909Q126.011-99.019 115.975-99.019L37.5619-99.019Q27.4954-99.019 21.7896-93.3909Q16.084-87.7628 16.084-77.8929L16.084-50.3023Q16.084-45.3214 19.1052-42.1999Q22.1265-39.0782 26.5959-39.0782Q29.2228-39.0782 31.2719-39.9615Q33.3209-40.8447 35.1169-42.2367Q37.1658-43.8291 39.3384-44.9312Q41.5109-46.0333 44.133-46.0333Q48.6125-46.0333 51.649-43.1006Q54.6855-40.1679 54.6855-35.314Q54.6855-30.4601 51.649-27.5274Q48.6125-24.5947 44.133-24.5947Q41.5109-24.5947 39.3384-25.6968Q37.1658-26.7989 35.1169-28.3914Q33.3209-29.7833 31.2719-30.6665Q29.2228-31.5497 26.5959-31.5497Q22.1265-31.5497 19.1052-28.4281Q16.084-25.3066 16.084-20.3256ZM31.7995 6.58926L31.7995-10.9143Q31.7995-12.4005 32.5236-12.378Q33.2475-12.3554 34.1803-11.8839Q36.4395-10.6087 39.1075-9.89297Q41.7754-9.17717 44.9244-9.17717Q51.3853-9.17717 57.1137-12.3501Q62.8421-15.5229 66.4346-21.3731Q70.027-27.2233 70.027-35.314Q70.027-43.4047 66.4346-49.2773Q62.8421-55.1498 57.1137-58.3002Q51.3853-61.4508 44.9244-61.4508Q41.7754-61.4508 39.1075-60.7351Q36.4395-60.0193 34.1803-58.7441Q33.2475-58.2726 32.5236-58.2723Q31.7995-58.2721 31.7995-59.7137L31.7995-77.2888Q31.7995-80.1525 33.3885-81.728Q34.9774-83.3035 37.7228-83.3035L115.814-83.3035Q118.559-83.3035 120.133-81.728Q121.707-80.1525 121.707-77.2888L121.707-50.3157Q121.707-45.3348 124.728-42.1701Q127.75-39.0052 132.219-39.0052Q134.846-39.0052 136.898-39.9036Q138.95-40.802 140.74-42.1638Q142.789-43.7561 144.962-44.8582Q147.134-45.9603 149.756-45.9603Q154.236-45.9603 157.272-43.0249Q160.309-40.0894 160.309-35.241Q160.309-30.3871 157.272-27.4545Q154.236-24.5218 149.756-24.5218Q147.134-24.5218 144.962-25.6238Q142.789-26.726 140.74-28.3184Q138.95-29.7046 136.898-30.5879Q134.846-31.4711 132.219-31.4711Q127.75-31.4711 124.728-28.3092Q121.707-25.1473 121.707-20.1908L121.707 6.58926Q121.707 9.45295 120.133 11.0284Q118.559 12.6039 115.814 12.6039L37.7228 12.6039Q34.9774 12.6039 33.3885 11.0284Q31.7995 9.45295 31.7995 6.58926Z"/>
  </g>
  <g id="Bold-L" transform="matrix(1 0 0 1 2247.63 1556)">
   <path d="M16.084 7.13662Q16.084 16.5348 21.425 21.8166Q26.7661 27.0983 36.4055 27.0983L114.85 27.0983Q124.451 27.0983 129.792 21.8166Q135.133 16.5348 135.133 7.13662L135.133-13.0234Q135.133-13.8735 135.686-14.1407Q136.24-14.4079 137.157-13.8374Q139.679-12.2402 142.725-11.183Q145.77-10.1259 149.417-10.1259Q155.701-10.1259 161.171-13.1915Q166.641-16.2571 170.039-21.8846Q173.437-27.5121 173.437-35.1265Q173.437-42.7791 170.039-48.3956Q166.641-54.0121 161.171-57.0696Q155.701-60.1272 149.417-60.1272Q145.77-60.1272 142.725-59.0826Q139.679-58.0379 137.157-56.4026Q136.24-55.8699 135.686-56.1584Q135.133-56.4468 135.133-57.2544L135.133-77.8362Q135.133-87.2636 129.792-92.5307Q124.451-97.798 114.85-97.798L36.4055-97.798Q26.7661-97.798 21.425-92.5307Q16.084-87.2636 16.084-77.8362L16.084-50.009Q16.084-45.4962 18.775-42.7587Q21.4659-40.0211 25.4514-40.0211Q27.7324-40.0211 29.6438-40.8431Q31.5553-41.6651 33.3211-43.1197Q35.5079-44.9044 37.8533-46.0717Q40.1987-47.2389 42.9961-47.2389Q47.9277-47.2389 51.3066-43.9721Q54.6855-40.7053 54.6855-35.2985Q54.6855-29.8918 51.3066-26.6251Q47.9277-23.3583 42.9961-23.3583Q40.1987-23.3583 37.8533-24.5255Q35.5079-25.6928 33.3211-27.4776Q31.5553-28.9321 29.6438-29.754Q27.7324-30.576 25.4514-30.576Q21.4659-30.576 18.775-27.8384Q16.084-25.101 16.084-20.5881ZM29.3577 6.58597L29.3577-12.7333Q29.3577-14.4058 30.1511-14.3286Q30.9444-14.2512 31.8998-13.7186Q34.3596-12.2354 37.2276-11.2667Q40.0956-10.298 43.6417-10.298Q49.9254-10.298 55.3891-13.3636Q60.8526-16.4292 64.238-22.0376Q67.6233-27.646 67.6233-35.2985Q67.6233-42.9511 64.238-48.5742Q60.8526-54.1973 55.3891-57.2482Q49.9254-60.2992 43.6417-60.2992Q40.0956-60.2992 37.2276-59.3304Q34.3596-58.3617 31.8998-56.8785Q30.9444-56.3459 30.1511-56.2832Q29.3577-56.2206 29.3577-57.8639L29.3577-77.2855Q29.3577-80.735 31.289-82.6297Q33.2204-84.5245 36.5663-84.5245L114.689-84.5245Q118.035-84.5245 119.947-82.6297Q121.859-80.735 121.859-77.2855L121.859-50.0074Q121.859-45.4946 124.551-42.6718Q127.242-39.8491 131.227-39.8491Q133.508-39.8491 135.426-40.6901Q137.344-41.5311 139.097-42.9479Q141.284-44.7323 143.629-45.8996Q145.974-47.0668 148.772-47.0668Q153.703-47.0668 157.082-43.7935Q160.461-40.5202 160.461-35.1265Q160.461-29.7198 157.082-26.4531Q153.703-23.1865 148.772-23.1865Q145.974-23.1865 143.629-24.3536Q141.284-25.5207 139.097-27.3055Q137.344-28.7467 135.426-29.5688Q133.508-30.3908 131.227-30.3908Q127.242-30.3908 124.551-27.5748Q121.859-24.7587 121.859-20.2705L121.859 6.58597Q121.859 10.0354 119.947 11.9302Q118.035 13.8249 114.689 13.8249L36.5663 13.8249Q33.2204 13.8249 31.289 11.9302Q29.3577 10.0354 29.3577 6.58597Z"/>
  </g>
  <g id="Semibold-L" transform="matrix(1 0 0 1 1951.7 1556)">
   <path d="M16.084 7.09756Q16.084 16.2013 21.1736 21.2289Q26.2633 26.2566 35.6082 26.2566L114.074 26.2566Q123.375 26.2566 128.465 21.2289Q133.555 16.2013 133.555 7.09756L133.555-14.2374Q133.555-15.1029 134.123-15.3964Q134.692-15.6898 135.619-15.0718Q138.286-13.315 141.496-12.0726Q144.706-10.8303 148.638-10.8303Q154.799-10.8303 160.09-13.822Q165.38-16.8136 168.635-22.2771Q171.891-27.7406 171.891-35.0476Q171.891-42.3981 168.635-47.8401Q165.38-53.282 160.09-56.2734Q154.799-59.2649 148.638-59.2649Q144.706-59.2649 141.496-58.0352Q138.286-56.8055 135.619-55.0052Q134.692-54.4304 134.123-54.7424Q133.555-55.0544 133.555-55.8827L133.555-77.7972Q133.555-86.9195 128.465-91.9378Q123.375-96.9562 114.074-96.9562L35.6082-96.9562Q26.2633-96.9562 21.1736-91.9378Q16.084-86.9195 16.084-77.7972L16.084-49.8068Q16.084-45.6167 18.5473-43.144Q21.0106-40.6711 24.6623-40.6711Q26.7048-40.6711 28.5214-41.4509Q30.338-42.2306 32.0831-43.7284Q34.3649-45.6457 36.8295-46.8579Q39.2941-48.07 42.2122-48.07Q47.4556-48.07 51.0706-44.5729Q54.6855-41.0758 54.6855-35.2879Q54.6855-29.5001 51.0706-26.003Q47.4556-22.5059 42.2122-22.5059Q39.2941-22.5059 36.8295-23.718Q34.3649-24.9302 32.0831-26.8476Q30.338-28.3453 28.5214-29.125Q26.7048-29.9047 24.6623-29.9047Q21.0106-29.9047 18.5473-27.4319Q16.084-24.9592 16.084-20.7691ZM27.6743 6.58371L27.6743-13.9872Q27.6743-15.7882 28.5155-15.6733Q29.3567-15.5582 30.3276-14.9835Q32.9257-13.3569 35.9317-12.2138Q38.9376-11.0706 42.7574-11.0706Q48.919-11.0706 54.2001-14.0623Q59.4811-17.0539 62.7236-22.4957Q65.9662-27.9374 65.9662-35.2879Q65.9662-42.6385 62.7236-48.0896Q59.4811-53.5406 54.2001-56.5229Q48.919-59.5053 42.7574-59.5053Q38.9376-59.5053 35.9317-58.3621Q32.9257-57.219 30.3276-55.5924Q29.3567-55.0177 28.5155-54.9119Q27.6743-54.8062 27.6743-56.5887L27.6743-77.2832Q27.6743-81.1365 29.8417-83.2513Q32.0091-85.3662 35.769-85.3662L113.913-85.3662Q117.673-85.3662 119.819-83.2513Q121.964-81.1365 121.964-77.2832L121.964-49.7948Q121.964-45.6047 124.428-43.0178Q126.891-40.4308 130.543-40.4308Q132.585-40.4308 134.411-41.2323Q136.237-42.0338 137.964-43.4884Q140.246-45.4054 142.71-46.6176Q145.175-47.8297 148.093-47.8297Q153.336-47.8297 156.951-44.3235Q160.566-40.8172 160.566-35.0476Q160.566-29.2598 156.951-25.7628Q153.336-22.2659 148.093-22.2659Q145.175-22.2659 142.71-23.4778Q140.246-24.6899 137.964-26.6073Q136.237-28.0863 134.411-28.8662Q132.585-29.6461 130.543-29.6461Q126.891-29.6461 124.428-27.0685Q121.964-24.4908 121.964-20.3254L121.964 6.58371Q121.964 10.4369 119.819 12.5518Q117.673 14.6667 113.913 14.6667L35.769 14.6667Q32.0091 14.6667 29.8417 12.5518Q27.6743 10.4369 27.6743 6.58371Z"/>
  </g>
  <g id="Medium-L" transform="matrix(1 0 0 1 1655.57 1556)">
   <path d="M16.084 7.06794Q16.084 15.9484 20.983 20.7834Q25.882 25.6183 35.0037 25.6183L113.486 25.6183Q122.56 25.6183 127.459 20.7834Q132.358 15.9484 132.358 7.06794L132.358-15.1579Q132.358-16.035 132.938-16.3484Q133.519-16.6617 134.454-16.0077Q137.229-14.13 140.564-12.7471Q143.9-11.3644 148.047-11.3644Q154.116-11.3644 159.27-14.3Q164.424-17.2356 167.57-22.5747Q170.718-27.9139 170.718-34.9878Q170.718-42.1093 167.57-47.4189Q164.424-52.7283 159.27-55.6697Q154.116-58.6112 148.047-58.6112Q143.9-58.6112 140.564-57.2411Q137.229-55.871 134.454-53.9456Q133.519-53.3388 132.938-53.6687Q132.358-53.9986 132.358-54.8427L132.358-77.7676Q132.358-86.6585 127.459-91.4882Q122.56-96.318 113.486-96.318L35.0037-96.318Q25.882-96.318 20.983-91.4882Q16.084-86.6585 16.084-77.7676L16.084-49.6534Q16.084-45.7081 18.3747-43.4361Q20.6653-41.164 24.0641-41.164Q25.9257-41.164 27.6704-41.9117Q29.4151-42.6594 31.1444-44.1899Q33.4983-46.2078 36.0533-47.454Q38.6081-48.7002 41.6179-48.7002Q47.0976-48.7002 50.8916-45.0285Q54.6855-41.3567 54.6855-35.2799Q54.6855-29.203 50.8916-25.5314Q47.0976-21.8596 41.6179-21.8596Q38.6081-21.8596 36.0533-23.1057Q33.4983-24.352 31.1444-26.3699Q29.4151-27.9003 27.6704-28.648Q25.9257-29.3957 24.0641-29.3957Q20.6653-29.3957 18.3747-27.1237Q16.084-24.8517 16.084-20.9063ZM26.3978 6.58199L26.3978-14.938Q26.3978-16.8365 27.2753-16.6929Q28.1528-16.5492 29.1354-15.9426Q31.8384-14.2072 34.949-12.9319Q38.0595-11.6565 42.0869-11.6565Q48.1559-11.6565 53.2986-14.5921Q58.4411-17.5277 61.5754-22.843Q64.7097-28.1584 64.7097-35.2799Q64.7097-42.4014 61.5754-47.7221Q58.4411-53.0427 53.2986-55.9729Q48.1559-58.9033 42.0869-58.9033Q38.0595-58.9033 34.949-57.6279Q31.8384-56.3525 29.1354-54.6172Q28.1528-54.0105 27.2753-53.8721Q26.3978-53.7338 26.3978-55.6218L26.3978-77.2815Q26.3978-81.441 28.7442-83.7227Q31.0906-86.0045 35.1645-86.0045L113.325-86.0045Q117.399-86.0045 119.721-83.7227Q122.044-81.441 122.044-77.2815L122.044-49.6336Q122.044-45.6882 124.335-43.2801Q126.626-40.8719 130.024-40.8719Q131.886-40.8719 133.642-41.6434Q135.398-42.4149 137.105-43.8982Q139.459-45.9157 142.014-47.1619Q144.569-48.4081 147.578-48.4081Q153.058-48.4081 156.852-44.7253Q160.646-41.0423 160.646-34.9878Q160.646-28.9109 156.852-25.2394Q153.058-21.5678 147.578-21.5678Q144.569-21.5678 142.014-22.8138Q139.459-24.0599 137.105-26.0778Q135.398-27.5856 133.642-28.3335Q131.886-29.0814 130.024-29.0814Q126.626-29.0814 124.335-26.6845Q122.044-24.2877 122.044-20.367L122.044 6.58199Q122.044 10.7414 119.721 13.0232Q117.399 15.3049 113.325 15.3049L35.1645 15.3049Q31.0906 15.3049 28.7442 13.0232Q26.3978 10.7414 26.3978 6.58199Z"/>
  </g>
  <g id="Regular-L" transform="matrix(1 0 0 1 1359.63 1556)">
   <path d="M16.084 7.02931Q16.084 15.6185 20.7343 20.2022Q25.3847 24.7858 34.2152 24.7858L112.719 24.7858Q121.496 24.7858 126.146 20.2022Q130.797 15.6185 130.797 7.02931L130.797-16.3585Q130.797-17.2509 131.393-17.5902Q131.989-17.9295 132.933-17.2286Q135.851-15.193 139.349-13.6269Q142.847-12.061 147.276-12.061Q153.224-12.061 158.2-14.9235Q163.177-17.7859 166.182-22.9629Q169.188-28.1399 169.188-34.9097Q169.188-41.7325 166.182-46.8694Q163.177-52.0062 158.2-54.8823Q153.224-57.7584 147.276-57.7584Q142.847-57.7584 139.349-56.2053Q135.851-54.6521 132.933-52.5635Q131.989-51.9151 131.393-52.2683Q130.797-52.6215 130.797-53.486L130.797-77.7289Q130.797-86.3182 126.146-90.9017Q121.496-95.4855 112.719-95.4855L34.2152-95.4855Q25.3847-95.4855 20.7343-90.9017Q16.084-86.3182 16.084-77.7289L16.084-49.4534Q16.084-45.8273 18.1495-43.8171Q20.2149-41.8069 23.2837-41.8069Q24.9095-41.8069 26.5603-42.5128Q28.2112-43.2187 29.92-44.792Q32.3679-46.941 35.0407-48.2316Q37.7135-49.5222 40.8427-49.5222Q46.6307-49.5222 50.6581-45.6227Q54.6855-41.7231 54.6855-35.2694Q54.6855-28.8156 50.6581-24.9161Q46.6307-21.0166 40.8427-21.0166Q37.7135-21.0166 35.0407-22.3071Q32.3679-23.5978 29.92-25.7469Q28.2112-27.32 26.5603-28.0259Q24.9095-28.7318 23.2837-28.7318Q20.2149-28.7318 18.1495-26.7216Q16.084-24.7114 16.084-21.0853ZM24.7329 6.57974L24.7329-16.1782Q24.7329-18.2037 25.6577-18.0228Q26.5825-17.8418 27.5805-17.1935Q30.4203-15.3164 33.6673-13.8686Q36.9142-12.4207 41.2123-12.4207Q47.1606-12.4207 52.1227-15.2831Q57.0846-18.1456 60.0777-23.2961Q63.0708-28.4466 63.0708-35.2694Q63.0708-42.0922 60.0777-47.2428Q57.0846-52.3932 52.1227-55.2556Q47.1606-58.118 41.2123-58.118Q36.9142-58.118 33.6673-56.6702Q30.4203-55.2224 27.5805-53.3452Q26.5825-52.6969 25.6577-52.5159Q24.7329-52.335 24.7329-54.3606L24.7329-77.2792Q24.7329-81.8381 27.3128-84.3375Q29.8926-86.837 34.376-86.837L112.558-86.837Q117.041-86.837 119.594-84.3375Q122.148-81.8381 122.148-77.2792L122.148-49.4234Q122.148-45.7972 124.214-43.6222Q126.279-41.4473 129.348-41.4473Q130.973-41.4473 132.638-42.1797Q134.303-42.9121 135.984-44.4328Q138.432-46.5813 141.105-47.8719Q143.778-49.1625 146.907-49.1625Q152.695-49.1625 156.722-45.2493Q160.749-41.3361 160.749-34.9097Q160.749-28.456 156.722-24.5567Q152.695-20.6574 146.907-20.6574Q143.778-20.6574 141.105-21.9477Q138.432-23.2381 135.984-25.3872Q134.303-26.9325 132.638-27.6386Q130.973-28.3448 129.348-28.3448Q126.279-28.3448 124.214-26.1838Q122.148-24.0227 122.148-20.4213L122.148 6.57974Q122.148 11.1385 119.594 13.638Q117.041 16.1374 112.558 16.1374L34.376 16.1374Q29.8926 16.1374 27.3128 13.638Q24.7329 11.1385 24.7329 6.57974Z"/>
  </g>
  <g id="Light-L" transform="matrix(1 0 0 1 1063.69 1556)">
   <path d="M16.084 7.58277Q16.084 15.2177 20.4195 19.496Q24.755 23.7742 32.6311 23.7742L112.642 23.7742Q120.484 23.7742 124.82 19.496Q129.155 15.2177 129.155 7.58277L129.155-17.2936Q129.155-18.3578 129.885-18.7926Q130.615-19.2272 131.712-18.431Q134.534-16.4336 138.032-14.6194Q141.53-12.8053 146.685-12.8053Q152.575-12.8053 157.322-15.5342Q162.07-18.2631 164.846-23.2111Q167.623-28.1591 167.623-34.6615Q167.623-41.198 164.846-46.1059Q162.07-51.0138 157.322-53.7658Q152.575-56.5178 146.685-56.5178Q141.53-56.5178 138.032-54.6976Q134.534-52.8773 131.712-50.8457Q130.615-50.0828 129.885-50.5411Q129.155-50.9993 129.155-52.0165L129.155-78.2824Q129.155-85.9173 124.82-90.1955Q120.484-94.4738 112.642-94.4738L32.6311-94.4738Q24.755-94.4738 20.4195-90.1955Q16.084-85.9173 16.084-78.2824L16.084-49.5297Q16.084-46.3426 17.8823-44.6378Q19.6804-42.9331 22.425-42.9331Q23.8407-42.9331 25.2434-43.5434Q26.6461-44.1538 28.2023-45.5362Q30.8409-47.7807 33.6378-49.1573Q36.4347-50.5339 40.0029-50.5339Q46.3443-50.5339 50.5149-46.3574Q54.6855-42.181 54.6855-35.2694Q54.6855-28.3577 50.5149-24.1814Q46.3443-20.0049 40.0029-20.0049Q36.4347-20.0049 33.6378-21.3814Q30.8409-22.758 28.2023-25.0026Q26.6461-26.385 25.2434-26.9953Q23.8407-27.6057 22.425-27.6057Q19.6804-27.6057 17.8823-25.9009Q16.084-24.1961 16.084-21.009ZM22.7099 7.2669L22.7099-17.8767Q22.7099-19.6351 23.6347-19.6068Q24.5595-19.5785 25.6912-18.8157Q28.4929-16.9196 31.8162-15.1665Q35.1394-13.4131 40.2391-13.4131Q46.13-13.4131 50.8535-16.142Q55.5769-18.8709 58.3601-23.8019Q61.1433-28.7329 61.1433-35.2694Q61.1433-41.8058 58.3601-46.7369Q55.5769-51.6679 50.8535-54.3967Q46.13-57.1256 40.2391-57.1256Q35.1394-57.1256 31.8162-55.3724Q28.4929-53.6191 25.6912-51.723Q24.5595-50.9602 23.6347-50.9319Q22.7099-50.9036 22.7099-52.6621L22.7099-77.9664Q22.7099-82.5634 25.4329-85.206Q28.156-87.8487 32.792-87.8487L112.481-87.8487Q117.118-87.8487 119.823-85.206Q122.529-82.5634 122.529-77.9664L122.529-49.4234Q122.529-46.2361 124.328-44.2807Q126.127-42.3252 128.87-42.3252Q130.286-42.3252 131.712-42.9526Q133.139-43.58 134.648-44.9292Q137.287-47.1729 140.084-48.5495Q142.881-49.926 146.449-49.926Q152.791-49.926 156.961-45.7265Q161.131-41.5269 161.131-34.6615Q161.131-27.7499 156.961-23.5738Q152.791-19.3978 146.449-19.3978Q142.881-19.3978 140.084-20.774Q137.287-22.1502 134.648-24.3948Q133.139-25.73 131.712-26.3408Q130.286-26.9515 128.87-26.9515Q126.127-26.9515 124.328-25.0197Q122.529-23.0877 122.529-19.8868L122.529 7.2669Q122.529 11.8639 119.823 14.5065Q117.118 17.1491 112.481 17.1491L32.792 17.1491Q28.156 17.1491 25.4329 14.5065Q22.7099 11.8639 22.7099 7.2669Z"/>
  </g>
  <g id="Thin-L" transform="matrix(1 0 0 1 768.017 1556)">
   <path d="M16.084 8.31475Q16.084 14.6876 20.003 18.5619Q23.9221 22.4362 30.5361 22.4362L112.541 22.4362Q119.146 22.4362 123.065 18.5619Q126.984 14.6876 126.984 8.31475L126.984-18.5303Q126.984-19.8218 127.891-20.3827Q128.797-20.9435 130.097-20.0214Q132.792-18.0744 136.291-15.9319Q139.789-13.7896 145.902-13.7896Q151.717-13.7896 156.161-16.3418Q160.606-18.8941 163.079-23.5393Q165.553-28.1846 165.553-34.3333Q165.553-40.491 163.079-45.0961Q160.606-49.7012 156.161-52.2891Q151.717-54.877 145.902-54.877Q139.789-54.877 136.291-52.7035Q132.792-50.5299 130.097-48.5739Q128.797-47.6595 127.891-48.2568Q126.984-48.8539 126.984-50.0729L126.984-79.0143Q126.984-85.3872 123.065-89.2614Q119.146-93.1357 112.541-93.1357L30.5361-93.1357Q23.9221-93.1357 20.003-89.2614Q16.084-85.3872 16.084-79.0143L16.084-49.6307Q16.084-47.0242 17.5288-45.7233Q18.9735-44.4225 21.2892-44.4225Q22.4272-44.4225 23.5016-44.9064Q24.5761-45.3904 25.9304-46.5205Q28.8214-48.8914 31.7824-50.3817Q34.7434-51.8719 38.8922-51.8719Q45.9656-51.8719 50.3255-47.3292Q54.6855-42.7866 54.6855-35.2694Q54.6855-27.7521 50.3255-23.2095Q45.9656-18.667 38.8922-18.667Q34.7434-18.667 31.7824-20.1571Q28.8214-21.6473 25.9304-24.0183Q24.5761-25.1483 23.5016-25.6323Q22.4272-26.1162 21.2892-26.1162Q18.9735-26.1162 17.5288-24.8155Q16.084-23.5146 16.084-20.908ZM20.0343 8.17572L20.0343-20.1232Q20.0343-21.5283 20.9591-21.7019Q21.8839-21.8754 23.1925-20.9612Q25.9437-19.0401 29.3679-16.883Q32.792-14.7257 38.952-14.7257Q44.7669-14.7257 49.175-17.2779Q53.5828-19.8301 56.0885-24.4709Q58.5941-29.1116 58.5941-35.2694Q58.5941-41.4271 56.0885-46.0679Q53.5828-50.7086 49.175-53.2608Q44.7669-55.813 38.952-55.813Q32.792-55.813 29.3679-53.6559Q25.9437-51.4986 23.1925-49.5775Q21.8839-48.6633 20.9591-48.8369Q20.0343-49.0104 20.0343-50.4157L20.0343-78.8753Q20.0343-83.5228 22.9467-86.3546Q25.8591-89.1867 30.697-89.1867L112.38-89.1867Q117.218-89.1867 120.126-86.3546Q123.034-83.5228 123.034-78.8753L123.034-49.4234Q123.034-46.8167 124.48-45.1516Q125.925-43.4864 128.239-43.4864Q129.377-43.4864 130.488-43.9749Q131.599-44.4634 132.882-45.5857Q135.773-47.9554 138.734-49.4456Q141.695-50.9357 145.843-50.9357Q152.917-50.9357 157.276-46.3575Q161.636-41.7792 161.636-34.3333Q161.636-26.816 157.276-22.2739Q152.917-17.732 145.843-17.732Q141.695-17.732 138.734-19.2216Q135.773-20.7112 132.882-23.0822Q131.599-24.1397 130.488-24.6242Q129.377-25.1088 128.239-25.1088Q125.925-25.1088 124.48-23.48Q123.034-21.851 123.034-19.1799L123.034 8.17572Q123.034 12.8232 120.126 15.6551Q117.218 18.4871 112.38 18.4871L30.697 18.4871Q25.8591 18.4871 22.9467 15.6551Q20.0343 12.8232 20.0343 8.17572Z"/>
  </g>
  <g id="Ultralight-L" transform="matrix(1 0 0 1 471.835 1556)">
   <path d="M16.084 8.68968Q16.084 14.4161 19.7897 18.0835Q23.4954 21.7508 29.463 21.7508L112.49 21.7508Q118.461 21.7508 122.167 18.0835Q125.872 14.4161 125.872 8.68968L125.872-19.1637Q125.872-20.5716 126.87-21.1972Q127.867-21.8226 129.269-20.8359Q131.9-18.9148 135.398-16.6042Q138.897-14.2938 145.501-14.2938Q151.277-14.2938 155.566-16.7555Q159.856-19.2173 162.174-23.7075Q164.492-28.1976 164.492-34.1652Q164.492-40.1289 162.174-44.5789Q159.856-49.0289 155.566-51.5328Q151.277-54.0366 145.501-54.0366Q138.897-54.0366 135.398-51.6822Q131.9-49.3276 129.269-47.4103Q127.867-46.4183 126.87-47.0867Q125.872-47.7549 125.872-49.0774L125.872-79.3892Q125.872-85.1157 122.167-88.783Q118.461-92.4504 112.49-92.4504L29.463-92.4504Q23.4954-92.4504 19.7897-88.783Q16.084-85.1157 16.084-79.3892L16.084-49.6824Q16.084-47.3732 17.3477-46.2792Q18.6114-45.1854 20.7075-45.1854Q21.7032-45.1854 22.6095-45.6046Q23.5158-46.0238 24.7668-47.0246Q27.787-49.4603 30.832-51.0088Q33.8771-52.5573 38.3233-52.5573Q45.7716-52.5573 50.2285-47.8269Q54.6855-43.0968 54.6855-35.2694Q54.6855-27.4419 50.2285-22.7118Q45.7716-17.9817 38.3233-17.9817Q33.8771-17.9817 30.832-19.5299Q27.787-21.0784 24.7668-23.5141Q23.5158-24.5149 22.6095-24.9341Q21.7032-25.3533 20.7075-25.3533Q18.6114-25.3533 17.3477-24.2595Q16.084-23.1655 16.084-20.8563ZM18.6638 8.64122L18.6638-21.2738Q18.6638-22.498 19.5886-22.7749Q20.5134-23.0519 21.9127-22.0601Q24.638-20.1262 28.1139-17.7622Q31.5897-15.398 38.2928-15.398Q44.0688-15.398 48.3152-17.8597Q52.5615-20.3215 54.9249-24.8135Q57.2884-29.3056 57.2884-35.2694Q57.2884-41.2331 54.9249-45.7252Q52.5615-50.2172 48.3152-52.679Q44.0688-55.1408 38.2928-55.1408Q31.5897-55.1408 28.1139-52.7767Q24.638-50.4125 21.9127-48.4786Q20.5134-47.4869 19.5886-47.7638Q18.6638-48.0408 18.6638-49.2651L18.6638-79.3408Q18.6638-84.0141 21.6733-86.943Q24.6827-89.872 29.6239-89.872L112.329-89.872Q117.27-89.872 120.281-86.943Q123.293-84.0141 123.293-79.3408L123.293-49.4234Q123.293-47.114 124.557-45.5976Q125.822-44.0812 127.916-44.0812Q128.912-44.0812 129.861-44.4985Q130.81-44.9158 131.977-45.9219Q134.997-48.3561 138.042-49.9046Q141.087-51.4529 145.533-51.4529Q152.982-51.4529 157.438-46.6807Q161.894-41.9085 161.894-34.1652Q161.894-26.3377 157.438-21.6081Q152.982-16.8788 145.533-16.8788Q141.087-16.8788 138.042-18.4265Q134.997-19.9742 131.977-22.4099Q130.81-23.3251 129.861-23.7451Q128.912-24.165 127.916-24.165Q125.822-24.165 124.557-22.6914Q123.293-21.2176 123.293-18.8178L123.293 8.64122Q123.293 13.3145 120.281 16.2435Q117.27 19.1724 112.329 19.1724L29.6239 19.1724Q24.6827 19.1724 21.6733 16.2435Q18.6638 13.3145 18.6638 8.64122Z"/>
  </g>
  <g id="Black-M" transform="matrix(1 0 0 1 2859.62 1126)">
   <path d="M12.4609-2.09176Q12.4609 5.81946 17.3069 10.6316Q22.153 15.4437 30.2511 15.4437L91.4685 15.4437Q99.5611 15.4437 104.407 10.6316Q109.253 5.81946 109.253-2.09176L109.253-14.4072Q109.253-15.0744 109.677-15.2287Q110.101-15.383 110.83-15.0625Q112.286-14.3556 114.111-14.0527Q115.936-13.7499 118.086-13.7499Q123.33-13.7499 128.074-16.3194Q132.817-18.8887 135.835-23.7024Q138.853-28.5161 138.853-35.3212Q138.853-42.132 135.835-46.9716Q132.817-51.8113 128.074-54.3519Q123.33-56.8927 118.086-56.8927Q115.936-56.8927 114.111-56.5927Q112.286-56.2928 110.83-55.5803Q110.101-55.2653 109.677-55.448Q109.253-55.6308 109.253-56.2412L109.253-68.5539Q109.253-76.5222 104.407-81.3058Q99.5611-86.0893 91.4685-86.0893L30.2511-86.0893Q22.153-86.0893 17.3069-81.3058Q12.4609-76.5222 12.4609-68.5539L12.4609-47.3617Q12.4609-42.9682 15.1931-40.0928Q17.9253-37.2173 21.9846-37.2173Q24.4538-37.2173 26.1578-37.9586Q27.8618-38.6998 29.2452-39.6218Q30.6962-40.607 32.1691-41.395Q33.6419-42.1829 35.5668-42.1829Q38.5651-42.1829 40.4661-40.3047Q42.3672-38.4264 42.3672-35.3176Q42.3672-32.2088 40.4661-30.3306Q38.5651-28.4523 35.5668-28.4523Q33.6419-28.4523 32.1691-29.2402Q30.6962-30.0282 29.2452-31.0134Q27.8618-31.9354 26.1578-32.6766Q24.4538-33.4178 21.9846-33.4178Q17.9253-33.4178 15.1931-30.5424Q12.4609-27.667 12.4609-23.2734ZM27.5151-2.59218L27.5151-14.3125Q27.5151-15.1008 27.9747-15.2153Q28.4341-15.3296 29.1694-15.0146Q30.6136-14.3241 32.4143-14.0352Q34.215-13.7463 36.3475-13.7463Q41.5921-13.7463 46.3359-16.3157Q51.0796-18.885 54.0939-23.696Q57.1083-28.5069 57.1083-35.3176Q57.1083-42.1283 54.0939-46.9678Q51.0796-51.8073 46.3359-54.3481Q41.5921-56.889 36.3475-56.889Q34.215-56.889 32.4143-56.6Q30.6136-56.3111 29.1694-55.6206Q28.4341-55.3055 27.9747-55.4485Q27.5151-55.5915 27.5151-56.3227L27.5151-68.0535Q27.5151-69.4294 28.2947-70.2323Q29.0742-71.0352 30.3757-71.0352L91.3438-71.0352Q92.6453-71.0352 93.4222-70.2323Q94.199-69.4294 94.199-68.0535L94.199-47.368Q94.199-42.9746 96.9312-40.0978Q99.6634-37.221 103.723-37.221Q106.192-37.221 107.896-37.965Q109.6-38.709 110.983-39.6255Q112.434-40.6107 113.907-41.3987Q115.38-42.1866 117.305-42.1866Q120.303-42.1866 122.204-40.3085Q124.105-38.4304 124.105-35.3212Q124.105-32.2125 122.204-30.3342Q120.303-28.456 117.305-28.456Q115.38-28.456 113.907-29.2439Q112.434-30.0319 110.983-31.0171Q109.6-31.9394 107.896-32.6806Q106.192-33.4218 103.723-33.4218Q99.6634-33.4218 96.9312-30.5449Q94.199-27.668 94.199-23.2802L94.199-2.59218Q94.199-1.21625 93.4222-0.413321Q92.6453 0.389597 91.3438 0.389597L30.3757 0.389597Q29.0742 0.389597 28.2947-0.413321Q27.5151-1.21625 27.5151-2.59218Z"/>
  </g>
  <g id="Heavy-M" transform="matrix(1 0 0 1 2563.72 1126)">
   <path d="M12.4609-2.26016Q12.4609 5.48279 17.0559 10.0384Q21.6509 14.594 29.5807 14.594L90.5016 14.594Q98.4149 14.594 103.01 10.0384Q107.605 5.48279 107.605-2.26016L107.605-15.7452Q107.605-16.3949 108.02-16.5621Q108.434-16.7292 109.144-16.369Q110.802-15.4515 112.836-14.9672Q114.871-14.4829 117.225-14.4829Q122.327-14.4829 126.892-16.9873Q131.456-19.4916 134.342-24.1466Q137.228-28.8016 137.228-35.2745Q137.228-41.7639 134.342-46.4314Q131.456-51.0989 126.892-53.5825Q122.327-56.0662 117.225-56.0662Q114.871-56.0662 112.836-55.589Q110.802-55.1118 109.144-54.1779Q108.434-53.834 108.02-54.0241Q107.605-54.2142 107.605-54.8181L107.605-68.3855Q107.605-76.1721 103.01-80.7058Q98.4149-85.2397 90.5016-85.2397L29.5807-85.2397Q21.6509-85.2397 17.0559-80.7058Q12.4609-76.1721 12.4609-68.3855L12.4609-47.0889Q12.4609-43.0103 14.9619-40.4049Q17.4629-37.7993 21.1689-37.7993Q23.3808-37.7993 25.018-38.5076Q26.655-39.2159 28.0449-40.2336Q29.5754-41.3663 31.1727-42.1928Q32.7699-43.0191 34.7536-43.0191Q38.0281-43.0191 40.1977-40.9084Q42.3672-38.7977 42.3672-35.3041Q42.3672-31.8106 40.1977-29.6999Q38.0281-27.5891 34.7536-27.5891Q32.7699-27.5891 31.1727-28.4155Q29.5754-29.2419 28.0449-30.3747Q26.655-31.3924 25.018-32.1006Q23.3808-32.8088 21.1689-32.8088Q17.4629-32.8088 14.9619-30.2034Q12.4609-27.598 12.4609-23.5192ZM25.8157-2.74266L25.8157-15.5372Q25.8157-16.5457 26.3359-16.5796Q26.856-16.6133 27.5823-16.2695Q29.21-15.4013 31.1692-14.9569Q33.1283-14.5125 35.4356-14.5125Q40.5378-14.5125 45.1014-17.0169Q49.6649-19.5212 52.5433-24.168Q55.4218-28.8148 55.4218-35.3041Q55.4218-41.7935 52.5433-46.4621Q49.6649-51.1307 45.1014-53.6132Q40.5378-56.0958 35.4356-56.0958Q33.1283-56.0958 31.1692-55.6513Q29.21-55.207 27.5823-54.3387Q26.856-53.9949 26.3359-54.0505Q25.8157-54.1062 25.8157-55.071L25.8157-67.903Q25.8157-69.7826 26.8638-70.8337Q27.9118-71.8849 29.7054-71.8849L90.3769-71.8849Q92.1705-71.8849 93.2103-70.8337Q94.2501-69.7826 94.2501-67.903L94.2501-47.0986Q94.2501-43.0199 96.7511-40.3949Q99.2521-37.7698 102.958-37.7698Q105.17-37.7698 106.808-38.4863Q108.446-39.2027 109.834-40.204Q111.365-41.3368 112.962-42.1632Q114.559-42.9896 116.543-42.9896Q119.817-42.9896 121.987-40.8777Q124.156-38.7659 124.156-35.2745Q124.156-31.781 121.987-29.6703Q119.817-27.5596 116.543-27.5596Q114.559-27.5596 112.962-28.3859Q111.365-29.2124 109.834-30.3452Q108.446-31.3606 106.808-32.0688Q105.17-32.777 102.958-32.777Q99.2521-32.777 96.7511-30.1531Q94.2501-27.5293 94.2501-23.4647L94.2501-2.74266Q94.2501-0.863058 93.2103 0.188121Q92.1705 1.23929 90.3769 1.23929L29.7054 1.23929Q27.9118 1.23929 26.8638 0.188121Q25.8157-0.863058 25.8157-2.74266Z"/>
  </g>
  <g id="Bold-M" transform="matrix(1 0 0 1 2267.91 1126)">
   <path d="M12.4609-2.44854Q12.4609 5.10618 16.775 9.37484Q21.0892 13.6435 28.8309 13.6435L89.4199 13.6435Q97.1328 13.6435 101.447 9.37484Q105.761 5.10618 105.761-2.44854L105.761-17.2419Q105.761-17.8722 106.166-18.0537Q106.57-18.2351 107.258-17.8304Q109.143-16.6776 111.411-15.9902Q113.678-15.3029 116.262-15.3029Q121.205-15.3029 125.57-17.7345Q129.934-20.1661 132.672-24.6436Q135.411-29.121 135.411-35.2223Q135.411-41.3522 132.672-45.8271Q129.934-50.302 125.57-52.7218Q121.205-55.1417 116.262-55.1417Q113.678-55.1417 111.411-54.4662Q109.143-53.7907 107.258-52.6091Q106.57-52.233 106.166-52.4313Q105.761-52.6296 105.761-53.2262L105.761-68.1971Q105.761-75.7804 101.447-80.0347Q97.1328-84.2891 89.4199-84.2891L28.8309-84.2891Q21.0892-84.2891 16.775-80.0347Q12.4609-75.7804 12.4609-68.1971L12.4609-46.7838Q12.4609-43.0574 14.7033-40.754Q16.9456-38.4505 20.2564-38.4505Q22.1806-38.4505 23.7428-39.1218Q25.305-39.7931 26.7022-40.9179Q28.3215-42.2157 30.058-43.0852Q31.7944-43.9546 33.844-43.9546Q37.4275-43.9546 39.8973-41.5838Q42.3672-39.213 42.3672-35.289Q42.3672-31.3651 39.8973-28.9944Q37.4275-26.6235 33.844-26.6235Q31.7944-26.6235 30.058-27.4929Q28.3215-28.3624 26.7022-29.6603Q25.305-30.785 23.7428-31.4563Q22.1806-32.1276 20.2564-32.1276Q16.9456-32.1276 14.7033-29.8241Q12.4609-27.5207 12.4609-23.7942ZM23.9148-2.91099L23.9148-16.9072Q23.9148-18.1621 24.5028-18.1057Q25.0908-18.0493 25.8069-17.6733Q27.6399-16.6063 29.7763-15.988Q31.9127-15.3697 34.4155-15.3697Q39.3584-15.3697 43.7204-17.8013Q48.0823-20.2328 50.8087-24.696Q53.5351-29.1592 53.5351-35.289Q53.5351-41.419 50.8087-45.8964Q48.0823-50.3739 43.7204-52.7911Q39.3584-55.2084 34.4155-55.2084Q31.9127-55.2084 29.7763-54.5901Q27.6399-53.9718 25.8069-52.9048Q25.0908-52.5287 24.5028-52.4866Q23.9148-52.4446 23.9148-53.6709L23.9148-67.7346Q23.9148-70.1776 25.2631-71.5065Q26.6114-72.8354 28.9555-72.8354L89.2953-72.8354Q91.6393-72.8354 92.9733-71.5065Q94.3073-70.1776 94.3073-67.7346L94.3073-46.7971Q94.3073-43.0706 96.5497-40.7272Q98.7921-38.3837 102.103-38.3837Q104.027-38.3837 105.592-39.0694Q107.157-39.755 108.549-40.8512Q110.168-42.149 111.905-43.0184Q113.641-43.8878 115.69-43.8878Q119.274-43.8878 121.744-41.5145Q124.214-39.1412 124.214-35.2223Q124.214-31.2984 121.744-28.9276Q119.274-26.5568 115.69-26.5568Q113.641-26.5568 111.905-27.4262Q110.168-28.2956 108.549-29.5935Q107.157-30.7131 105.592-31.3844Q104.027-32.0557 102.103-32.0557Q98.7921-32.0557 96.5497-29.7149Q94.3073-27.374 94.3073-23.671L94.3073-2.91099Q94.3073-0.467961 92.9733 0.86092Q91.6393 2.1898 89.2953 2.1898L28.9555 2.1898Q26.6114 2.1898 25.2631 0.86092Q23.9148-0.467961 23.9148-2.91099Z"/>
  </g>
  <g id="Semibold-M" transform="matrix(1 0 0 1 1971.83 1126)">
   <path d="M12.4609-2.57841Q12.4609 4.84655 16.5814 8.91739Q20.702 12.9882 28.3139 12.9882L88.6742 12.9882Q96.2489 12.9882 100.369 8.91739Q104.49 4.84655 104.49-2.57841L104.49-18.2738Q104.49-18.8906 104.888-19.0819Q105.285-19.2732 105.957-18.8379Q107.999-17.5228 110.428-16.6954Q112.856-15.8682 115.598-15.8682Q120.431-15.8682 124.658-18.2497Q128.884-20.6311 131.521-24.9862Q134.158-29.3413 134.158-35.1862Q134.158-41.0683 131.521-45.4105Q128.884-49.7526 124.658-52.1284Q120.431-54.5043 115.598-54.5043Q112.856-54.5043 110.428-53.6921Q107.999-52.8799 105.957-51.5275Q105.285-51.1293 104.888-51.3332Q104.49-51.5371 104.49-52.1287L104.49-68.0672Q104.49-75.5104 100.369-79.5721Q96.2489-83.6339 88.6742-83.6339L28.3139-83.6339Q20.702-83.6339 16.5814-79.5721Q12.4609-75.5104 12.4609-68.0672L12.4609-46.5735Q12.4609-43.0898 14.525-40.9946Q16.589-38.8993 19.6274-38.8993Q21.3532-38.8993 22.8638-39.5452Q24.3744-40.1911 25.7765-41.3897Q27.4572-42.8013 29.2896-43.7004Q31.1219-44.5995 33.2168-44.5995Q37.0135-44.5995 39.6903-42.0494Q42.3672-39.4993 42.3672-35.2786Q42.3672-31.058 39.6903-28.508Q37.0135-25.9579 33.2168-25.9579Q31.1219-25.9579 29.2896-26.8569Q27.4572-27.756 25.7765-29.1677Q24.3744-30.3663 22.8638-31.0121Q21.3532-31.6579 19.6274-31.6579Q16.589-31.6579 14.525-29.5627Q12.4609-27.4675 12.4609-23.9838ZM22.6042-3.02704L22.6042-17.8517Q22.6042-19.2764 23.239-19.1579Q23.8738-19.0393 24.583-18.6411Q26.5575-17.437 28.8161-16.6989Q31.0747-15.9606 33.7122-15.9606Q38.5453-15.9606 42.7683-18.3421Q46.9913-20.7235 49.6129-25.06Q52.2345-29.3966 52.2345-35.2786Q52.2345-41.1607 49.6129-45.5065Q46.9913-49.8521 42.7683-52.2243Q38.5453-54.5967 33.7122-54.5967Q31.0747-54.5967 28.8161-53.8585Q26.5575-53.1203 24.583-51.9163Q23.8738-51.518 23.239-51.4085Q22.6042-51.2991 22.6042-52.7057L22.6042-67.6185Q22.6042-70.45 24.1596-71.9703Q25.715-73.4907 28.4385-73.4907L88.5496-73.4907Q91.2731-73.4907 92.8099-71.9703Q94.3467-70.45 94.3467-67.6185L94.3467-46.5893Q94.3467-43.1056 96.4109-40.9563Q98.475-38.8069 101.513-38.8069Q103.239-38.8069 104.753-39.4714Q106.267-40.1357 107.662-41.2974Q109.343-42.7089 111.176-43.608Q113.008-44.5071 115.103-44.5071Q118.899-44.5071 121.576-41.9535Q124.253-39.3999 124.253-35.1862Q124.253-30.9656 121.576-28.4156Q118.899-25.8656 115.103-25.8656Q113.008-25.8656 111.176-26.7646Q109.343-27.6636 107.662-29.0753Q106.267-30.2667 104.753-30.9126Q103.239-31.5585 101.513-31.5585Q98.475-31.5585 96.4109-29.4128Q94.3467-27.267 94.3467-23.8132L94.3467-3.02704Q94.3467-0.195583 92.8099 1.32474Q91.2731 2.84507 88.5496 2.84507L28.4385 2.84507Q25.715 2.84507 24.1596 1.32474Q22.6042-0.195583 22.6042-3.02704Z"/>
  </g>
  <g id="Medium-M" transform="matrix(1 0 0 1 1675.59 1126)">
   <path d="M12.4609-2.67688Q12.4609 4.64968 16.4347 8.57053Q20.4084 12.4914 27.9219 12.4914L88.1088 12.4914Q95.5787 12.4914 99.5525 8.57053Q103.526 4.64968 103.526-2.67688L103.526-19.0561Q103.526-19.6628 103.919-19.8616Q104.311-20.0604 104.971-19.6019Q107.131-18.1636 109.682-17.2302Q112.233-16.2968 115.095-16.2968Q119.844-16.2968 123.967-18.6402Q128.089-20.9836 130.648-25.2459Q133.208-29.5082 133.208-35.1589Q133.208-40.8531 130.648-45.0946Q128.089-49.3361 123.967-51.6785Q119.844-54.021 115.095-54.021Q112.233-54.021 109.682-53.1052Q107.131-52.1893 104.971-50.7075Q104.311-50.2924 103.919-50.5005Q103.526-50.7088 103.526-51.2966L103.526-67.9688Q103.526-75.3056 99.5525-79.2213Q95.5787-83.137 88.1088-83.137L27.9219-83.137Q20.4084-83.137 16.4347-79.2213Q12.4609-75.3056 12.4609-67.9688L12.4609-46.414Q12.4609-43.1144 14.3898-41.1771Q16.3186-39.2397 19.1504-39.2397Q20.7258-39.2397 22.1973-39.8663Q23.6687-40.4928 25.0746-41.7474Q26.8017-43.2453 28.7069-44.1669Q30.612-45.0885 32.7413-45.0885Q36.6995-45.0885 39.5333-42.4025Q42.3672-39.7164 42.3672-35.2708Q42.3672-30.8252 39.5333-28.1392Q36.6995-25.4531 32.7413-25.4531Q30.612-25.4531 28.7069-26.3747Q26.8017-27.2963 25.0746-28.7943Q23.6687-30.0488 22.1973-30.6753Q20.7258-31.3018 19.1504-31.3018Q16.3186-31.3018 14.3898-29.3644Q12.4609-27.4271 12.4609-24.1275ZM21.6106-3.11504L21.6106-18.5678Q21.6106-20.1213 22.2808-19.9556Q22.951-19.7899 23.6549-19.3749Q25.7368-18.0669 28.088-17.2378Q30.4392-16.4087 33.179-16.4087Q37.9287-16.4087 42.0464-18.7521Q46.164-21.0955 48.7062-25.336Q51.2483-29.5766 51.2483-35.2708Q51.2483-40.965 48.7062-45.2108Q46.164-49.4565 42.0464-51.7946Q37.9287-54.1329 33.179-54.1329Q30.4392-54.1329 28.088-53.3037Q25.7368-52.4747 23.6549-51.1667Q22.951-50.7516 22.2808-50.591Q21.6106-50.4306 21.6106-51.9738L21.6106-67.5305Q21.6106-70.6565 23.3229-72.322Q25.0353-73.9875 28.0465-73.9875L87.9842-73.9875Q90.9954-73.9875 92.686-72.322Q94.3766-70.6565 94.3766-67.5305L94.3766-46.4317Q94.3766-43.1321 96.3056-41.13Q98.2345-39.1279 101.066-39.1279Q102.642-39.1279 104.117-39.7762Q105.593-40.4244 106.99-41.6357Q108.718-43.1334 110.623-44.055Q112.528-44.9766 114.657-44.9766Q118.615-44.9766 121.449-42.2864Q124.283-39.596 124.283-35.1589Q124.283-30.7133 121.449-28.0274Q118.615-25.3414 114.657-25.3414Q112.528-25.3414 110.623-26.2629Q108.718-27.1844 106.99-28.6824Q105.593-29.9282 104.117-30.5548Q102.642-31.1815 101.066-31.1815Q98.2345-31.1815 96.3056-29.1837Q94.3766-27.1859 94.3766-23.921L94.3766-3.11504Q94.3766 0.0109451 92.686 1.67643Q90.9954 3.34192 87.9842 3.34192L28.0465 3.34192Q25.0353 3.34192 23.3229 1.67643Q21.6106 0.0109451 21.6106-3.11504Z"/>
  </g>
  <g id="Regular-M" transform="matrix(1 0 0 1 1379.5 1126)">
   <path d="M12.4609-2.80532Q12.4609 4.3929 16.2432 8.1181Q20.0255 11.8433 27.4106 11.8433L87.3713 11.8433Q94.7046 11.8433 98.4869 8.1181Q102.269 4.3929 102.269-2.80532L102.269-20.0766Q102.269-20.67 102.655-20.8786Q103.04-21.0871 103.685-20.5983Q106-18.9995 108.71-17.9277Q111.42-16.8559 114.438-16.8559Q119.079-16.8559 123.065-19.1497Q127.051-21.4435 129.509-25.5847Q131.969-29.726 131.969-35.1233Q131.969-40.5724 129.509-44.6826Q127.051-48.7928 123.065-51.0917Q119.079-53.3907 114.438-53.3907Q111.42-53.3907 108.71-52.3396Q106-51.2885 103.685-49.6378Q103.04-49.2007 102.655-49.4145Q102.269-49.6283 102.269-50.2111L102.269-67.8403Q102.269-75.0386 98.4869-78.7637Q94.7046-82.4889 87.3713-82.4889L27.4106-82.4889Q20.0255-82.4889 16.2432-78.7637Q12.4609-75.0386 12.4609-67.8403L12.4609-46.206Q12.4609-43.1465 14.2135-41.4151Q15.966-39.6836 18.5282-39.6836Q19.9075-39.6836 21.3279-40.285Q22.7483-40.8864 24.1591-42.214Q25.9469-43.8244 27.9469-44.7753Q29.9469-45.7263 32.1211-45.7263Q36.29-45.7263 39.3286-42.863Q42.3672-39.9995 42.3672-35.2605Q42.3672-30.5214 39.3286-27.6581Q36.29-24.7947 32.1211-24.7947Q29.9469-24.7947 27.9469-25.7456Q25.9469-26.6966 24.1591-28.3071Q22.7483-29.6346 21.3279-30.236Q19.9075-30.8373 18.5282-30.8373Q15.966-30.8373 14.2135-29.1059Q12.4609-27.3745 12.4609-24.315ZM20.3144-3.22981L20.3144-19.5019Q20.3144-21.2233 21.0309-20.9962Q21.7474-20.769 22.4444-20.332Q24.6663-18.8884 27.1383-17.9408Q29.6104-16.9931 32.4835-16.9931Q37.1246-16.9931 41.1048-19.2869Q45.085-21.5807 47.5235-25.696Q49.9619-29.8114 49.9619-35.2605Q49.9619-40.7096 47.5235-44.8251Q45.085-48.9404 41.1048-51.2341Q37.1246-53.5279 32.4835-53.5279Q29.6104-53.5279 27.1383-52.5802Q24.6663-51.6326 22.4444-50.189Q21.7474-49.752 21.0309-49.5248Q20.3144-49.2977 20.3144-51.0191L20.3144-67.4157Q20.3144-70.9259 22.2316-72.7807Q24.1487-74.6356 27.5352-74.6356L87.2467-74.6356Q90.6332-74.6356 92.5244-72.7807Q94.4156-70.9259 94.4156-67.4157L94.4156-46.2262Q94.4156-43.1667 96.1683-41.3566Q97.9209-39.5464 100.483-39.5464Q101.862-39.5464 103.288-40.1737Q104.714-40.801 106.114-42.077Q107.902-43.6872 109.902-44.6381Q111.902-45.589 114.076-45.589Q118.245-45.589 121.283-42.7205Q124.322-39.8519 124.322-35.1233Q124.322-30.3842 121.283-27.521Q118.245-24.6577 114.076-24.6577Q111.902-24.6577 109.902-25.6085Q107.902-26.5594 106.114-28.1699Q104.714-29.4868 103.288-30.0882Q101.862-30.6897 100.483-30.6897Q97.9209-30.6897 96.1683-28.8849Q94.4156-27.0801 94.4156-24.0617L94.4156-3.22981Q94.4156 0.28033 92.5244 2.13516Q90.6332 3.98999 87.2467 3.98999L27.5352 3.98999Q24.1487 3.98999 22.2316 2.13516Q20.3144 0.28033 20.3144-3.22981Z"/>
  </g>
  <g id="Light-M" transform="matrix(1 0 0 1 1083.49 1126)">
   <path d="M12.4609-2.30912Q12.4609 4.03355 15.9609 7.48492Q19.4609 10.9363 25.9904 10.9363L87.3029 10.9363Q93.7975 10.9363 97.2975 7.48492Q100.798 4.03355 100.798-2.30912L100.798-20.915Q100.798-21.6625 101.303-21.9565Q101.808-22.2506 102.59-21.6764Q104.819-20.1118 107.529-18.8174Q110.24-17.5232 113.908-17.5232Q118.497-17.5232 122.278-19.6972Q126.058-21.8712 128.311-25.8073Q130.566-29.7433 130.566-34.9008Q130.566-40.0931 128.311-43.9981Q126.058-47.903 122.278-50.0907Q118.497-52.2784 113.908-52.2784Q110.24-52.2784 107.529-50.9879Q104.819-49.6973 102.59-48.0978Q101.808-47.558 101.303-47.866Q100.798-48.174 100.798-48.8936L100.798-68.3365Q100.798-74.6792 97.2975-78.1305Q93.7975-81.5819 87.3029-81.5819L25.9904-81.5819Q19.4609-81.5819 15.9609-78.1305Q12.4609-74.6792 12.4609-68.3365L12.4609-46.2744Q12.4609-43.6085 13.9739-42.1509Q15.4867-40.6933 17.7583-40.6933Q18.9493-40.6933 20.1472-41.209Q21.3451-41.7247 22.6191-42.8812Q24.5779-44.5773 26.6892-45.6053Q28.8004-46.6333 31.3682-46.6333Q36.0332-46.6333 39.2002-43.5217Q42.3672-40.4101 42.3672-35.2605Q42.3672-30.1109 39.2002-26.9994Q36.0332-23.8878 31.3682-23.8878Q28.8004-23.8878 26.6892-24.9157Q24.5779-25.9437 22.6191-27.6399Q21.3451-28.7963 20.1472-29.312Q18.9493-29.8277 17.7583-29.8277Q15.4867-29.8277 13.9739-28.3701Q12.4609-26.9125 12.4609-24.2466ZM18.5007-2.61374L18.5007-21.0247Q18.5007-22.5067 19.2172-22.4164Q19.9336-22.326 20.7506-21.7863Q22.9382-20.3259 25.4787-19.1044Q28.0192-17.8829 31.611-17.8829Q36.2006-17.8829 39.967-20.0569Q43.7333-22.2309 45.9836-26.1495Q48.2339-30.0681 48.2339-35.2605Q48.2339-40.4529 45.9836-44.3715Q43.7333-48.2901 39.967-50.4641Q36.2006-52.6381 31.611-52.6381Q28.0192-52.6381 25.4787-51.4166Q22.9382-50.1951 20.7506-48.7346Q19.9336-48.195 19.2172-48.1046Q18.5007-48.0143 18.5007-49.4964L18.5007-68.0318Q18.5007-71.5762 20.5462-73.5594Q22.5917-75.5426 26.115-75.5426L87.1782-75.5426Q90.7016-75.5426 92.7297-73.5594Q94.7577-71.5762 94.7577-68.0318L94.7577-46.2262Q94.7577-43.5602 96.2709-41.9469Q97.784-40.3336 100.055-40.3336Q101.246-40.3336 102.458-40.8667Q103.67-41.3998 104.916-42.522Q106.875-44.2176 108.986-45.2456Q111.098-46.2735 113.665-46.2735Q118.331-46.2735 121.497-43.1483Q124.664-40.023 124.664-34.9008Q124.664-29.7512 121.497-26.6398Q118.331-23.5285 113.665-23.5285Q111.098-23.5285 108.986-24.5562Q106.875-25.584 104.916-27.2802Q103.67-28.4087 102.458-28.9246Q101.246-29.4406 100.055-29.4406Q97.784-29.4406 96.2709-27.8412Q94.7577-26.2418 94.7577-23.5825L94.7577-2.61374Q94.7577 0.93062 92.7297 2.91381Q90.7016 4.89701 87.1782 4.89701L26.115 4.89701Q22.5917 4.89701 20.5462 2.91381Q18.5007 0.93062 18.5007-2.61374Z"/>
  </g>
  <g id="Thin-M" transform="matrix(1 0 0 1 787.707 1126)">
   <path d="M12.4609-1.65286Q12.4609 3.55828 15.5875 6.64748Q18.7141 9.73668 24.1121 9.73668L87.2124 9.73668Q92.5979 9.73668 95.7245 6.64748Q98.8511 3.55828 98.8511-1.65286L98.8511-22.0237Q98.8511-22.975 99.515-23.3822Q100.179-23.7893 101.142-23.1022Q103.258-21.5829 105.968-19.9942Q108.678-18.4057 113.206-18.4057Q117.728-18.4057 121.237-20.4213Q124.746-22.437 126.727-26.1015Q128.71-29.7661 128.71-34.6065Q128.71-39.4593 126.727-43.0928Q124.746-46.7262 121.237-48.7668Q117.728-50.8073 113.206-50.8073Q108.678-50.8073 105.968-49.2001Q103.258-47.5927 101.142-46.061Q100.179-45.3854 99.515-45.818Q98.8511-46.2504 98.8511-47.1511L98.8511-68.9928Q98.8511-74.2039 95.7245-77.293Q92.5979-80.3823 87.2124-80.3823L24.1121-80.3823Q18.7141-80.3823 15.5875-77.293Q12.4609-74.2039 12.4609-68.9928L12.4609-46.3649Q12.4609-44.2196 13.657-43.1241Q14.8529-42.0287 16.7401-42.0287Q17.682-42.0287 18.5856-42.431Q19.4892-42.8334 20.5823-43.7636Q22.7673-45.5731 25.0257-46.703Q27.2841-47.8329 30.3724-47.8329Q35.6936-47.8329 39.0304-44.3929Q42.3672-40.9531 42.3672-35.2605Q42.3672-29.5679 39.0304-26.1281Q35.6936-22.6882 30.3724-22.6882Q27.2841-22.6882 25.0257-23.818Q22.7673-24.9479 20.5823-26.7574Q19.4892-27.6876 18.5856-28.09Q17.682-28.4923 16.7401-28.4923Q14.8529-28.4923 13.657-27.3969Q12.4609-26.3014 12.4609-24.1561ZM16.1019-1.79894L16.1019-23.0387Q16.1019-24.204 16.8183-24.2947Q17.5348-24.3853 18.5103-23.7099Q20.6527-22.227 23.2837-20.6434Q25.9146-19.0597 30.457-19.0597Q34.9785-19.0597 38.4621-21.0753Q41.9455-23.091 43.9469-26.7493Q45.9484-30.4077 45.9484-35.2605Q45.9484-40.1133 43.9469-43.7717Q41.9455-47.43 38.4621-49.4457Q34.9785-51.4613 30.457-51.4613Q25.9146-51.4613 23.2837-49.8777Q20.6527-48.294 18.5103-46.8111Q17.5348-46.1357 16.8183-46.2263Q16.1019-46.317 16.1019-47.4824L16.1019-68.8466Q16.1019-72.4363 18.3172-74.5892Q20.5324-76.7422 24.2367-76.7422L87.0877-76.7422Q90.7922-76.7422 93.0011-74.5892Q95.2102-72.4363 95.2102-68.8466L95.2102-46.2262Q95.2102-44.0807 96.4067-42.7277Q97.6031-41.3747 99.4893-41.3747Q100.431-41.3747 101.36-41.7833Q102.289-42.1918 103.332-43.1105Q105.517-44.9191 107.776-46.049Q110.034-47.1788 113.122-47.1788Q118.444-47.1788 121.78-43.714Q125.116-40.2492 125.116-34.6065Q125.116-28.9139 121.78-25.4744Q118.444-22.035 113.122-22.035Q110.034-22.035 107.776-23.1644Q105.517-24.2939 103.332-26.1034Q102.289-26.9829 101.36-27.3857Q100.431-27.7885 99.4893-27.7885Q97.6031-27.7885 96.4067-26.4608Q95.2102-25.1331 95.2102-22.9487L95.2102-1.79894Q95.2102 1.79068 93.0011 3.94364Q90.7922 6.0966 87.0877 6.0966L24.2367 6.0966Q20.5324 6.0966 18.3172 3.94364Q16.1019 1.79068 16.1019-1.79894Z"/>
  </g>
  <g id="Ultralight-M" transform="matrix(1 0 0 1 491.47 1126)">
   <path d="M12.4609-1.31672Q12.4609 3.31484 15.3963 6.21855Q18.3316 9.12225 23.15 9.12225L87.166 9.12225Q91.9835 9.12225 94.9189 6.21855Q97.8542 3.31484 97.8542-1.31672L97.8542-22.5916Q97.8542-23.6473 98.5993-24.1124Q99.3444-24.5774 100.4-23.8325Q102.458-22.3364 105.168-20.597Q107.878-18.8577 112.847-18.8577Q117.334-18.8577 120.703-20.7922Q124.073-22.7267 125.916-26.2523Q127.759-29.7778 127.759-34.4558Q127.759-39.1347 125.916-42.6291Q124.073-46.1235 120.703-48.0887Q117.334-50.0538 112.847-50.0538Q107.878-50.0538 105.168-48.2844Q102.458-46.5148 100.4-45.0177Q99.3444-44.2726 98.5993-44.769Q97.8542-45.2652 97.8542-46.2586L97.8542-69.3289Q97.8542-73.9605 94.9189-76.8641Q91.9835-79.7679 87.166-79.7679L23.15-79.7679Q18.3316-79.7679 15.3963-76.8641Q12.4609-73.9605 12.4609-69.3289L12.4609-46.4113Q12.4609-44.5325 13.4947-43.6225Q14.5283-42.7126 16.2185-42.7126Q17.0329-42.7126 17.7858-43.057Q18.5386-43.4013 19.539-44.2156Q21.8399-46.0831 24.1737-47.2652Q26.5074-48.4473 29.8624-48.4473Q35.5197-48.4473 38.9434-44.8392Q42.3672-41.2312 42.3672-35.2605Q42.3672-29.2898 38.9434-25.6818Q35.5197-22.0738 29.8624-22.0738Q26.5074-22.0738 24.1737-23.2558Q21.8399-24.4378 19.539-26.3053Q18.5386-27.1197 17.7858-27.464Q17.0329-27.8083 16.2185-27.8083Q14.5283-27.8083 13.4947-26.8985Q12.4609-25.9885 12.4609-24.1097ZM14.8732-1.3816L14.8732-24.0703Q14.8732-25.0734 15.5897-25.2567Q16.3062-25.4401 17.3629-24.6951Q19.4821-23.2007 22.1594-21.4316Q24.8367-19.6624 29.8659-19.6624Q34.3526-19.6624 37.6913-21.5969Q41.0298-23.5315 42.9038-27.0565Q44.7778-30.5816 44.7778-35.2605Q44.7778-39.9394 42.9038-43.4645Q41.0298-46.9895 37.6913-48.924Q34.3526-50.8586 29.8659-50.8586Q24.8367-50.8586 22.1594-49.0895Q19.4821-47.3203 17.3629-45.8259Q16.3062-45.0809 15.5897-45.2643Q14.8732-45.4476 14.8732-46.4508L14.8732-69.264Q14.8732-72.8768 17.1755-75.1167Q19.4777-77.3567 23.2747-77.3567L87.0414-77.3567Q90.8385-77.3567 93.1401-75.1167Q95.4419-72.8768 95.4419-69.264L95.4419-46.2262Q95.4419-44.3473 96.4762-43.1276Q97.5104-41.9079 99.1995-41.9079Q100.014-41.9079 100.798-42.2527Q101.582-42.5975 102.521-43.412Q104.822-45.2784 107.156-46.4605Q109.49-47.6425 112.844-47.6425Q118.502-47.6425 121.925-44.0038Q125.348-40.3651 125.348-34.4558Q125.348-28.4851 121.925-24.8775Q118.502-21.27 112.844-21.27Q109.49-21.27 107.156-22.4516Q104.822-23.6331 102.521-25.5006Q101.582-26.2526 100.798-26.5974Q100.014-26.9423 99.1995-26.9423Q97.5104-26.9423 96.4762-25.7538Q95.4419-24.5652 95.4419-22.624L95.4419-1.3816Q95.4419 2.2312 93.1401 4.47111Q90.8385 6.71103 87.0414 6.71103L23.2747 6.71103Q19.4777 6.71103 17.1755 4.47111Q14.8732 2.2312 14.8732-1.3816Z"/>
  </g>
  <g id="Black-S" transform="matrix(1 0 0 1 2875.37 696)">
   <path d="M9.76562-9.17969Q9.76562-2.97852 13.623 0.854492Q17.4805 4.6875 23.8281 4.6875L71.9727 4.6875Q78.3203 4.6875 82.1777 0.854492Q86.0352-2.97852 86.0352-9.17969L86.0352-18.5547Q86.0352-19.0918 86.377-19.2139Q86.7188-19.3359 87.3047-19.0918Q88.3789-18.6035 89.7461-18.4082Q91.1133-18.2129 92.7734-18.2129Q96.9238-18.2129 100.684-20.2393Q104.443-22.2656 106.836-26.0742Q109.229-29.8828 109.229-35.3027Q109.229-40.7227 106.836-44.5557Q104.443-48.3887 100.684-50.3906Q96.9238-52.3926 92.7734-52.3926Q91.1133-52.3926 89.7461-52.1973Q88.3789-52.002 87.3047-51.5137Q86.7188-51.2695 86.377-51.416Q86.0352-51.5625 86.0352-52.0508L86.0352-61.4258Q86.0352-67.6758 82.1777-71.4844Q78.3203-75.293 71.9727-75.293L23.8281-75.293Q17.4805-75.293 13.623-71.4844Q9.76562-67.6758 9.76562-61.4258L9.76562-44.8242Q9.76562-41.3086 11.9629-38.9893Q14.1602-36.6699 17.4316-36.6699Q19.4336-36.6699 20.7764-37.2559Q22.1191-37.8418 23.1934-38.5254Q24.3164-39.2578 25.4395-39.8682Q26.5625-40.4785 28.0762-40.4785Q30.3711-40.4785 31.7871-39.0625Q33.2031-37.6465 33.2031-35.3027Q33.2031-32.959 31.7871-31.543Q30.3711-30.127 28.0762-30.127Q26.5625-30.127 25.4395-30.7373Q24.3164-31.3477 23.1934-32.0801Q22.1191-32.7637 20.7764-33.3496Q19.4336-33.9355 17.4316-33.9355Q14.1602-33.9355 11.9629-31.6162Q9.76562-29.2969 9.76562-25.7812ZM21.9727-9.57031L21.9727-18.5547Q21.9727-19.0918 22.3145-19.2139Q22.6562-19.3359 23.2422-19.0918Q24.3164-18.6035 25.6836-18.4082Q27.0508-18.2129 28.7109-18.2129Q32.8613-18.2129 36.6211-20.2393Q40.3809-22.2656 42.7734-26.0742Q45.166-29.8828 45.166-35.3027Q45.166-40.7227 42.7734-44.5557Q40.3809-48.3887 36.6211-50.3906Q32.8613-52.3926 28.7109-52.3926Q27.0508-52.3926 25.6836-52.1973Q24.3164-52.002 23.2422-51.5137Q22.6562-51.2695 22.3145-51.416Q21.9727-51.5625 21.9727-52.0508L21.9727-61.0352Q21.9727-61.9629 22.5098-62.5244Q23.0469-63.0859 23.9258-63.0859L71.875-63.0859Q72.7539-63.0859 73.291-62.5244Q73.8281-61.9629 73.8281-61.0352L73.8281-44.8242Q73.8281-41.3086 76.0254-38.9893Q78.2227-36.6699 81.4941-36.6699Q83.4961-36.6699 84.8389-37.2559Q86.1816-37.8418 87.2559-38.5254Q88.3789-39.2578 89.502-39.8682Q90.625-40.4785 92.1387-40.4785Q94.4336-40.4785 95.8496-39.0625Q97.2656-37.6465 97.2656-35.3027Q97.2656-32.959 95.8496-31.543Q94.4336-30.127 92.1387-30.127Q90.625-30.127 89.502-30.7373Q88.3789-31.3477 87.2559-32.0801Q86.1816-32.7637 84.8389-33.3496Q83.4961-33.9355 81.4941-33.9355Q78.2227-33.9355 76.0254-31.6162Q73.8281-29.2969 73.8281-25.7812L73.8281-9.57031Q73.8281-8.64258 73.291-8.08105Q72.7539-7.51953 71.875-7.51953L23.9258-7.51953Q23.0469-7.51953 22.5098-8.08105Q21.9727-8.64258 21.9727-9.57031Z"/>
  </g>
  <g id="Heavy-S" transform="matrix(1 0 0 1 2579.26 696)">
   <path d="M9.76562-9.38713Q9.76562-3.22053 13.4444 0.428087Q17.1232 4.0767 23.4363 4.0767L71.1545 4.0767Q77.456 4.0767 81.1347 0.428087Q84.8136-3.22053 84.8136-9.38713L84.8136-19.5919Q84.8136-20.0944 85.1323-20.2165Q85.4511-20.3385 86.0024-20.0714Q87.261-19.3987 88.8069-19.0766Q90.3527-18.7545 92.105-18.7545Q96.1401-18.7545 99.7735-20.7406Q103.406-22.7266 105.712-26.4257Q108.019-30.1248 108.019-35.2912Q108.019-40.4691 105.712-44.1812Q103.406-47.8932 99.7735-49.8605Q96.1401-51.8279 92.105-51.8279Q90.3527-51.8279 88.8069-51.5116Q87.261-51.1953 86.0024-50.5111Q85.4511-50.2554 85.1323-50.3961Q84.8136-50.5368 84.8136-51.0021L84.8136-61.2184Q84.8136-67.4223 81.1347-71.0522Q77.456-74.6822 71.1545-74.6822L23.4363-74.6822Q17.1232-74.6822 13.4444-71.0522Q9.76562-67.4223 9.76562-61.2184L9.76562-44.5822Q9.76562-41.2855 11.7958-39.1622Q13.826-37.0387 16.8323-37.0387Q18.6384-37.0387 19.9524-37.6074Q21.2663-38.176 22.3636-38.9633Q23.5327-39.811 24.748-40.4444Q25.9632-41.0778 27.4769-41.0778Q29.9447-41.0778 31.5739-39.4947Q33.2031-37.9116 33.2031-35.2912Q33.2031-32.6709 31.5739-31.0878Q29.9447-29.5047 27.4769-29.5047Q25.9632-29.5047 24.748-30.138Q23.5327-30.7715 22.3636-31.6191Q21.2663-32.4064 19.9524-32.9751Q18.6384-33.5437 16.8323-33.5437Q13.826-33.5437 11.7958-31.4203Q9.76562-29.2969 9.76562-26.0002ZM20.7511-9.77775L20.7511-19.4075Q20.7511-20.1636 21.1448-20.1992Q21.5383-20.2348 22.1013-19.9792Q23.3368-19.3411 24.8308-19.0478Q26.3248-18.7545 28.0425-18.7545Q32.0776-18.7545 35.7107-20.7406Q39.3437-22.7266 41.644-26.4199Q43.9444-30.1133 43.9444-35.2912Q43.9444-40.4691 41.644-44.1812Q39.3437-47.8932 35.7107-49.8605Q32.0776-51.8279 28.0425-51.8279Q26.3248-51.8279 24.8308-51.5346Q23.3368-51.2414 22.1013-50.6032Q21.5383-50.3476 21.1448-50.4018Q20.7511-50.4562 20.7511-51.1749L20.7511-60.8277Q20.7511-62.1819 21.5014-62.9393Q22.2517-63.6967 23.534-63.6967L71.0568-63.6967Q72.339-63.6967 73.0836-62.9393Q73.8281-62.1819 73.8281-60.8277L73.8281-44.5937Q73.8281-41.2971 75.8583-39.1679Q77.8885-37.0387 80.8948-37.0387Q82.7009-37.0387 84.0149-37.6131Q85.3288-38.1875 86.4261-38.9633Q87.5952-39.811 88.8105-40.4444Q90.0257-41.0778 91.5394-41.0778Q94.0072-41.0778 95.6364-39.4947Q97.2656-37.9116 97.2656-35.2912Q97.2656-32.6709 95.6364-31.0878Q94.0072-29.5047 91.5394-29.5047Q90.0257-29.5047 88.8105-30.138Q87.5952-30.7715 86.4261-31.6191Q85.3288-32.4064 84.0149-32.9751Q82.7009-33.5437 80.8948-33.5437Q77.8885-33.5437 75.8583-31.4145Q73.8281-29.2854 73.8281-26.0002L73.8281-9.77775Q73.8281-8.42361 73.0836-7.66617Q72.339-6.90873 71.0568-6.90873L23.534-6.90873Q22.2517-6.90873 21.5014-7.66617Q20.7511-8.42361 20.7511-9.77775Z"/>
  </g>
  <g id="Bold-S" transform="matrix(1 0 0 1 2283.23 696)">
   <path d="M9.76562-9.61915Q9.76562-3.49122 13.2446-0.048828Q16.7237 3.39355 22.9981 3.39355L70.2393 3.39355Q76.4892 3.39355 79.9683-0.048828Q83.4473-3.49122 83.4473-9.61915L83.4473-20.752Q83.4473-21.2158 83.7402-21.3379Q84.0333-21.4599 84.5459-21.167Q86.0108-20.2881 87.7563-19.8242Q89.5019-19.3603 91.3574-19.3603Q95.2636-19.3603 98.7551-21.3013Q102.246-23.2422 104.455-26.8188Q106.665-30.3955 106.665-35.2783Q106.665-40.1856 104.455-43.7622Q102.246-47.3389 98.7551-49.2675Q95.2636-51.1963 91.3574-51.1963Q89.5019-51.1963 87.7563-50.7447Q86.0108-50.293 84.5459-49.3896Q84.0333-49.1211 83.7402-49.2553Q83.4473-49.3897 83.4473-49.8291L83.4473-60.9864Q83.4473-67.1387 79.9683-70.5688Q76.4892-73.9991 70.2393-73.9991L22.9981-73.9991Q16.7237-73.9991 13.2446-70.5688Q9.76562-67.1387 9.76562-60.9864L9.76562-44.3115Q9.76562-41.2597 11.6089-39.3555Q13.4521-37.4511 16.1621-37.4511Q17.749-37.4511 19.0308-38.0005Q20.3125-38.5498 21.4356-39.4531Q22.6563-40.4297 23.9746-41.0889Q25.293-41.748 26.8066-41.748Q29.4678-41.748 31.3355-39.978Q33.2031-38.208 33.2031-35.2783Q33.2031-32.3487 31.3355-30.5786Q29.4678-28.8086 26.8066-28.8086Q25.293-28.8086 23.9746-29.4678Q22.6563-30.127 21.4356-31.1035Q20.3125-32.0068 19.0308-32.5562Q17.749-33.1055 16.1621-33.1055Q13.4521-33.1055 11.6089-31.2012Q9.76562-29.2969 9.76562-26.2451ZM19.3848-10.0098L19.3848-20.3614Q19.3848-21.3623 19.8365-21.3013Q20.288-21.2402 20.8252-20.9717Q22.2412-20.166 23.8769-19.7632Q25.5127-19.3603 27.2949-19.3603Q31.2011-19.3603 34.6924-21.3013Q38.1836-23.2422 40.3809-26.8066Q42.5781-30.3711 42.5781-35.2783Q42.5781-40.1856 40.3809-43.7622Q38.1836-47.3389 34.6924-49.2675Q31.2011-51.1963 27.2949-51.1963Q25.5127-51.1963 23.8769-50.7935Q22.2412-50.3906 20.8252-49.5849Q20.288-49.3164 19.8365-49.2675Q19.3848-49.2188 19.3848-50.1953L19.3848-60.5957Q19.3848-62.4267 20.3735-63.4033Q21.3623-64.3799 23.0957-64.3799L70.1416-64.3799Q71.875-64.3799 72.8516-63.4033Q73.8281-62.4267 73.8281-60.5957L73.8281-44.336Q73.8281-41.2842 75.6714-39.3677Q77.5146-37.4511 80.2246-37.4511Q81.8115-37.4511 83.0933-38.0127Q84.375-38.5742 85.4981-39.4531Q86.7188-40.4297 88.0371-41.0889Q89.3555-41.748 90.8691-41.748Q93.5303-41.748 95.398-39.978Q97.2656-38.208 97.2656-35.2783Q97.2656-32.3487 95.398-30.5786Q93.5303-28.8086 90.8691-28.8086Q89.3555-28.8086 88.0371-29.4678Q86.7188-30.127 85.4981-31.1035Q84.375-32.0068 83.0933-32.5562Q81.8115-33.1055 80.2246-33.1055Q77.5146-33.1055 75.6714-31.189Q73.8281-29.2725 73.8281-26.2451L73.8281-10.0098Q73.8281-8.17871 72.8516-7.20215Q71.875-6.22559 70.1416-6.22559L23.0957-6.22559Q21.3623-6.22559 20.3735-7.20215Q19.3848-8.17871 19.3848-10.0098Z"/>
  </g>
  <g id="Semibold-S" transform="matrix(1 0 0 1 1986.99 696)">
   <path d="M9.76562-9.77911Q9.76562-3.67784 13.1069-0.377636Q16.4482 2.92256 22.6959 2.92256L69.6083 2.92256Q75.8227 2.92256 79.164-0.377636Q82.5053-3.67784 82.5053-9.77911L82.5053-21.5517Q82.5053-21.9889 82.7805-22.111Q83.0557-22.2331 83.5417-21.9224Q85.1487-20.9013 87.0321-20.3396Q88.9154-19.778 90.842-19.778Q94.6594-19.778 98.053-21.6879Q101.446-23.5977 103.589-27.0899Q105.732-30.5821 105.732-35.2694Q105.732-39.99 103.589-43.4734Q101.446-46.9568 98.053-48.8588Q94.6594-50.7608 90.842-50.7608Q88.9154-50.7608 87.0321-50.2159Q85.1487-49.6709 83.5417-48.6165Q83.0557-48.3391 82.7805-48.4689Q82.5053-48.5987 82.5053-49.0204L82.5053-60.8264Q82.5053-66.9432 79.164-70.2356Q75.8227-73.5281 69.6083-73.5281L22.6959-73.5281Q16.4482-73.5281 13.1069-70.2356Q9.76562-66.9432 9.76562-60.8264L9.76562-44.1249Q9.76562-41.242 11.48-39.4888Q13.1944-37.7355 15.7-37.7355Q17.1359-37.7355 18.3954-38.2715Q19.6549-38.8075 20.7957-39.7909Q22.052-40.8563 23.4414-41.5332Q24.8308-42.2102 26.3445-42.2102Q29.139-42.2102 31.171-40.3113Q33.2031-38.4124 33.2031-35.2694Q33.2031-32.1265 31.171-30.2276Q29.139-28.3287 26.3445-28.3287Q24.8308-28.3287 23.4414-29.0056Q22.052-29.6826 20.7957-30.7481Q19.6549-31.7314 18.3954-32.2673Q17.1359-32.8033 15.7-32.8033Q13.1944-32.8033 11.48-31.0501Q9.76562-29.2969 9.76562-26.414ZM18.4428-10.1697L18.4428-21.019Q18.4428-22.1888 18.9344-22.0611Q19.426-21.9334 19.9454-21.656Q21.4858-20.7348 23.2193-20.2564Q24.9528-19.778 26.7795-19.778Q30.5969-19.778 33.9904-21.6879Q37.3838-23.5977 39.51-27.0733Q41.6361-30.5488 41.6361-35.2694Q41.6361-39.99 39.51-43.4734Q37.3838-46.9568 33.9904-48.8588Q30.5969-50.7608 26.7795-50.7608Q24.9528-50.7608 23.2193-50.2824Q21.4858-49.8041 19.9454-48.8829Q19.426-48.6055 18.9344-48.4855Q18.4428-48.3656 18.4428-49.5199L18.4428-60.4357Q18.4428-62.5956 19.596-63.7232Q20.7491-64.8508 22.7935-64.8508L69.5106-64.8508Q71.5551-64.8508 72.6916-63.7232Q73.8281-62.5956 73.8281-60.4357L73.8281-44.1582Q73.8281-41.2753 75.5425-39.5054Q77.2569-37.7355 79.7625-37.7355Q81.1984-37.7355 82.4579-38.2882Q83.7174-38.8408 84.8582-39.7909Q86.1145-40.8563 87.5039-41.5332Q88.8933-42.2102 90.407-42.2102Q93.2015-42.2102 95.2335-40.3113Q97.2656-38.4124 97.2656-35.2694Q97.2656-32.1265 95.2335-30.2276Q93.2015-28.3287 90.407-28.3287Q88.8933-28.3287 87.5039-29.0056Q86.1145-29.6826 84.8582-30.7481Q83.7174-31.7314 82.4579-32.2673Q81.1984-32.8033 79.7625-32.8033Q77.2569-32.8033 75.5425-31.0334Q73.8281-29.2636 73.8281-26.414L73.8281-10.1697Q73.8281-8.00986 72.6916-6.88222Q71.5551-5.75459 69.5106-5.75459L22.7935-5.75459Q20.7491-5.75459 19.596-6.88222Q18.4428-8.00986 18.4428-10.1697Z"/>
  </g>
  <g id="Medium-S" transform="matrix(1 0 0 1 1690.63 696)">
   <path d="M9.76562-9.9004Q9.76562-3.81934 13.0024-0.626953Q16.2393 2.56543 22.4668 2.56543L69.1299 2.56543Q75.3174 2.56543 78.5542-0.626953Q81.791-3.81934 81.791-9.9004L81.791-22.1582Q81.791-22.5752 82.0527-22.6973Q82.3145-22.8193 82.7803-22.4951Q84.4951-21.3662 86.4829-20.7304Q88.4707-20.0947 90.4512-20.0947Q94.2012-20.0947 97.5206-21.981Q100.84-23.8672 102.932-27.2954Q105.025-30.7236 105.025-35.2627Q105.025-39.8418 102.932-43.2544Q100.84-46.667 97.5206-48.5488Q94.2012-50.4307 90.4512-50.4307Q88.4707-50.4307 86.4829-49.815Q84.4951-49.1992 82.7803-48.0303Q82.3145-47.7461 82.0527-47.8725Q81.791-47.999 81.791-48.4072L81.791-60.7051Q81.791-66.795 78.5542-69.9829Q75.3174-73.1709 69.1299-73.1709L22.4668-73.1709Q16.2393-73.1709 13.0024-69.9829Q9.76562-66.795 9.76562-60.7051L9.76562-43.9834Q9.76562-41.2285 11.3823-39.5899Q12.999-37.9511 15.3496-37.9511Q16.6709-37.9511 17.9136-38.477Q19.1563-39.0029 20.3105-40.0469Q21.5938-41.1797 23.0371-41.8701Q24.4804-42.5606 25.9941-42.5606Q28.8897-42.5606 31.0464-40.564Q33.2031-38.5674 33.2031-35.2627Q33.2031-31.958 31.0464-29.9615Q28.8897-27.9648 25.9941-27.9648Q24.4804-27.9648 23.0371-28.6552Q21.5938-29.3457 20.3105-30.4786Q19.1563-31.5225 17.9136-32.0483Q16.6709-32.5742 15.3496-32.5742Q12.999-32.5742 11.3823-30.9355Q9.76562-29.2969 9.76562-26.542ZM17.7285-10.291L17.7285-21.5176Q17.7285-22.8154 18.2505-22.6372Q18.7724-22.459 19.2783-22.1748Q20.9131-21.166 22.7207-20.6304Q24.5283-20.0947 26.3887-20.0947Q30.1387-20.0947 33.458-21.981Q36.7773-23.8672 38.8496-27.2754Q40.9218-30.6836 40.9218-35.2627Q40.9218-39.8418 38.8496-43.2544Q36.7773-46.667 33.458-48.5488Q30.1387-50.4307 26.3887-50.4307Q24.5283-50.4307 22.7207-49.895Q20.9131-49.3594 19.2783-48.3506Q18.7724-48.0664 18.2505-47.8925Q17.7285-47.7188 17.7285-49.0078L17.7285-60.3144Q17.7285-62.7236 19.0063-63.9658Q20.2842-65.208 22.5644-65.208L69.0322-65.208Q71.3125-65.208 72.5703-63.9658Q73.8281-62.7236 73.8281-60.3144L73.8281-44.0235Q73.8281-41.2686 75.4448-39.6099Q77.0615-37.9511 79.4121-37.9511Q80.7334-37.9511 81.9761-38.4971Q83.2188-39.0429 84.373-40.0469Q85.6563-41.1797 87.0996-41.8701Q88.5429-42.5606 90.0566-42.5606Q92.9522-42.5606 95.1089-40.564Q97.2656-38.5674 97.2656-35.2627Q97.2656-31.958 95.1089-29.9615Q92.9522-27.9648 90.0566-27.9648Q88.5429-27.9648 87.0996-28.6552Q85.6563-29.3457 84.373-30.4786Q83.2188-31.5225 81.9761-32.0483Q80.7334-32.5742 79.4121-32.5742Q77.0615-32.5742 75.4448-30.9155Q73.8281-29.2568 73.8281-26.542L73.8281-10.291Q73.8281-7.88183 72.5703-6.63965Q71.3125-5.39746 69.0322-5.39746L22.5644-5.39746Q20.2842-5.39746 19.0063-6.63965Q17.7285-7.88183 17.7285-10.291Z"/>
  </g>
  <g id="Regular-S" transform="matrix(1 0 0 1 1394.38 696)">
   <path d="M9.76562-10.0586Q9.76562-4.00391 12.8662-0.952148Q15.9668 2.09961 22.168 2.09961L68.5059 2.09961Q74.6582 2.09961 77.7588-0.952148Q80.8594-4.00391 80.8594-10.0586L80.8594-22.9492Q80.8594-23.3398 81.1035-23.4619Q81.3477-23.584 81.7871-23.2422Q83.6426-21.9727 85.7666-21.2402Q87.8906-20.5078 89.9414-20.5078Q93.6035-20.5078 96.8262-22.3633Q100.049-24.2188 102.075-27.5635Q104.102-30.9082 104.102-35.2539Q104.102-39.6484 102.075-42.9688Q100.049-46.2891 96.8262-48.1445Q93.6035-50 89.9414-50Q87.8906-50 85.7666-49.292Q83.6426-48.584 81.7871-47.2656Q81.3477-46.9727 81.1035-47.0947Q80.8594-47.2168 80.8594-47.6074L80.8594-60.5469Q80.8594-66.6016 77.7588-69.6533Q74.6582-72.7051 68.5059-72.7051L22.168-72.7051Q15.9668-72.7051 12.8662-69.6533Q9.76562-66.6016 9.76562-60.5469L9.76562-43.7988Q9.76562-41.2109 11.2549-39.7217Q12.7441-38.2324 14.8926-38.2324Q16.0645-38.2324 17.2852-38.7451Q18.5059-39.2578 19.6777-40.3809Q20.9961-41.6016 22.5098-42.3096Q24.0234-43.0176 25.5371-43.0176Q28.5645-43.0176 30.8838-40.8936Q33.2031-38.7695 33.2031-35.2539Q33.2031-31.7383 30.8838-29.6143Q28.5645-27.4902 25.5371-27.4902Q24.0234-27.4902 22.5098-28.1982Q20.9961-28.9062 19.6777-30.127Q18.5059-31.25 17.2852-31.7627Q16.0645-32.2754 14.8926-32.2754Q12.7441-32.2754 11.2549-30.7861Q9.76562-29.2969 9.76562-26.709ZM16.7969-10.4492L16.7969-22.168Q16.7969-23.6328 17.3584-23.3887Q17.9199-23.1445 18.4082-22.8516Q20.166-21.7285 22.0703-21.1182Q23.9746-20.5078 25.8789-20.5078Q29.541-20.5078 32.7637-22.3633Q35.9863-24.2188 37.9883-27.5391Q39.9902-30.8594 39.9902-35.2539Q39.9902-39.6484 37.9883-42.9688Q35.9863-46.2891 32.7637-48.1445Q29.541-50 25.8789-50Q23.9746-50 22.0703-49.3896Q20.166-48.7793 18.4082-47.6562Q17.9199-47.3633 17.3584-47.1191Q16.7969-46.875 16.7969-48.3398L16.7969-60.1562Q16.7969-62.8906 18.2373-64.2822Q19.6777-65.6738 22.2656-65.6738L68.4082-65.6738Q70.9961-65.6738 72.4121-64.2822Q73.8281-62.8906 73.8281-60.1562L73.8281-43.8477Q73.8281-41.2598 75.3174-39.7461Q76.8066-38.2324 78.9551-38.2324Q80.127-38.2324 81.3477-38.7695Q82.5684-39.3066 83.7402-40.3809Q85.0586-41.6016 86.5723-42.3096Q88.0859-43.0176 89.5996-43.0176Q92.627-43.0176 94.9463-40.8936Q97.2656-38.7695 97.2656-35.2539Q97.2656-31.7383 94.9463-29.6143Q92.627-27.4902 89.5996-27.4902Q88.0859-27.4902 86.5723-28.1982Q85.0586-28.9062 83.7402-30.127Q82.5684-31.25 81.3477-31.7627Q80.127-32.2754 78.9551-32.2754Q76.8066-32.2754 75.3174-30.7617Q73.8281-29.248 73.8281-26.709L73.8281-10.4492Q73.8281-7.71484 72.4121-6.32324Q70.9961-4.93164 68.4082-4.93164L22.2656-4.93164Q19.6777-4.93164 18.2373-6.32324Q16.7969-7.71484 16.7969-10.4492Z"/>
  </g>
  <g id="Light-S" transform="matrix(1 0 0 1 1098.29 696)">
   <path d="M9.76562-9.61965Q9.76562-4.3218 12.6165-1.51227Q15.4673 1.29725 20.9117 1.29725L68.4454 1.29725Q73.8558 1.29725 76.7067-1.51227Q79.5576-4.3218 79.5576-9.61965L79.5576-23.6908Q79.5576-24.2177 79.9077-24.4155Q80.258-24.6132 80.8184-24.1959Q82.5981-22.9566 84.7221-22.0273Q86.8461-21.0981 89.4722-21.0981Q93.0888-21.0981 96.1299-22.8476Q99.1711-24.5972 101.015-27.7603Q102.861-30.9235 102.861-35.0571Q102.861-39.2245 101.015-42.3633Q99.1711-45.502 96.1299-47.259Q93.0888-49.0161 89.4722-49.0161Q86.8461-49.0161 84.7221-48.0962Q82.5981-47.1764 80.8184-45.9033Q80.258-45.5195 79.9077-45.7249Q79.5576-45.9302 79.5576-46.4419L79.5576-60.9858Q79.5576-66.2837 76.7067-69.0932Q73.8558-71.9027 68.4454-71.9027L20.9117-71.9027Q15.4673-71.9027 12.6165-69.0932Q9.76562-66.2837 9.76562-60.9858L9.76562-43.8593Q9.76562-41.6196 11.0429-40.3726Q12.3202-39.1256 14.2115-39.1256Q15.2169-39.1256 16.2407-39.5625Q17.2646-39.9994 18.3154-40.9711Q19.7851-42.2676 21.3972-43.0438Q23.0092-43.82 24.8711-43.82Q28.3374-43.82 30.7702-41.4763Q33.2031-39.1327 33.2031-35.2539Q33.2031-31.3751 30.7702-29.0315Q28.3374-26.6879 24.8711-26.6879Q23.0092-26.6879 21.3972-27.464Q19.7851-28.2402 18.3154-29.5367Q17.2646-30.5084 16.2407-30.9453Q15.2169-31.3822 14.2115-31.3822Q12.3202-31.3822 11.0429-30.1352Q9.76562-28.8882 9.76562-26.6485ZM15.1924-9.90421L15.1924-23.5151Q15.1924-24.7681 15.7539-24.645Q16.3154-24.5219 16.9098-24.1382Q18.6373-23.0001 20.6022-22.1475Q22.567-21.2949 25.1071-21.2949Q28.7236-21.2949 31.7571-23.0445Q34.7905-24.794 36.6261-27.9403Q38.4615-31.0865 38.4615-35.2539Q38.4615-39.4213 36.6261-42.5676Q34.7905-45.7138 31.7571-47.4633Q28.7236-49.2129 25.1071-49.2129Q22.567-49.2129 20.6022-48.3603Q18.6373-47.5077 16.9098-46.3696Q16.3154-45.9859 15.7539-45.8628Q15.1924-45.7397 15.1924-46.9927L15.1924-60.7012Q15.1924-63.4659 16.7464-64.971Q18.3004-66.4762 21.0093-66.4762L68.3477-66.4762Q71.0566-66.4762 72.5937-64.971Q74.1307-63.4659 74.1307-60.7012L74.1307-43.8477Q74.1307-41.6079 75.4082-40.2683Q76.6856-38.9287 78.5767-38.9287Q79.582-38.9287 80.6135-39.3825Q81.645-39.8363 82.6807-40.7746Q84.1504-42.0708 85.7626-42.847Q87.3746-43.6231 89.2364-43.6231Q92.7028-43.6231 95.1355-41.272Q97.5682-38.9208 97.5682-35.0571Q97.5682-31.1783 95.1355-28.8348Q92.7028-26.4913 89.2364-26.4913Q87.3746-26.4913 85.7626-27.2673Q84.1504-28.0433 82.6807-29.3399Q81.645-30.2963 80.6135-30.7334Q79.582-31.1704 78.5767-31.1704Q76.6856-31.1704 75.4082-29.8384Q74.1307-28.5064 74.1307-26.2851L74.1307-9.90421Q74.1307-7.13958 72.5937-5.63443Q71.0566-4.12928 68.3477-4.12928L21.0093-4.12928Q18.3004-4.12928 16.7464-5.63443Q15.1924-7.13958 15.1924-9.90421Z"/>
  </g>
  <g id="Thin-S" transform="matrix(1 0 0 1 802.396 696)">
   <path d="M9.76562-9.03911Q9.76562-4.74224 12.2862-2.25308Q14.8067 0.236068 19.2501 0.236068L68.3653 0.236068Q72.7946 0.236068 75.3152-2.25308Q77.8358-4.74224 77.8358-9.03911L77.8358-24.6716Q77.8358-25.3788 78.3262-25.6766Q78.8167-25.9744 79.5373-25.4572Q81.2167-24.258 83.3407-23.0683Q85.4647-21.8787 88.8516-21.8787Q92.408-21.8787 95.2089-23.4882Q98.0099-25.0977 99.6141-28.0207Q101.219-30.9437 101.219-34.7967Q101.219-38.6638 99.6141-41.5624Q98.0099-44.461 95.2089-46.0879Q92.408-47.7147 88.8516-47.7147Q85.4647-47.7147 83.3407-46.5147Q81.2167-45.3147 79.5373-44.1015Q78.8167-43.5976 78.3262-43.9132Q77.8358-44.2286 77.8358-44.9004L77.8358-61.5664Q77.8358-65.8633 75.3152-68.3523Q72.7946-70.8415 68.3653-70.8415L19.2501-70.8415Q14.8067-70.8415 12.2862-68.3523Q9.76562-65.8633 9.76562-61.5664L9.76562-43.9394Q9.76562-42.1601 10.7626-41.2335Q11.7595-40.3069 13.3108-40.3069Q14.0958-40.3069 14.8593-40.6435Q15.6229-40.9801 16.5136-41.7518Q18.1834-43.1485 19.9256-44.0148Q21.6678-44.8812 23.9902-44.8812Q28.037-44.8812 30.62-42.247Q33.2031-39.613 33.2031-35.2539Q33.2031-30.8948 30.62-28.2608Q28.037-25.6267 23.9902-25.6267Q21.6678-25.6267 19.9256-26.493Q18.1834-27.3593 16.5136-28.7561Q15.6229-29.5277 14.8593-29.8643Q14.0958-30.2009 13.3108-30.2009Q11.7595-30.2009 10.7626-29.2743Q9.76562-28.3477 9.76562-26.5684ZM13.0704-9.18342L13.0704-25.2967Q13.0704-26.2695 13.6319-26.3066Q14.1934-26.3435 14.928-25.8398Q16.6155-24.6818 18.6604-23.5089Q20.7053-22.3359 24.0863-22.3359Q27.6426-22.3359 30.4259-23.9454Q33.209-25.5548 34.8244-28.4708Q36.4397-31.3869 36.4397-35.2539Q36.4397-39.1209 34.8244-42.037Q33.209-44.953 30.4259-46.5624Q27.6426-48.1719 24.0863-48.1719Q20.7053-48.1719 18.6604-46.999Q16.6155-45.826 14.928-44.668Q14.1934-44.1643 13.6319-44.2012Q13.0704-44.2383 13.0704-45.2111L13.0704-61.422Q13.0704-64.2267 14.7746-65.882Q16.4787-67.5374 19.3477-67.5374L68.2676-67.5374Q71.1367-67.5374 72.8338-65.882Q74.531-64.2267 74.531-61.422L74.531-43.8477Q74.531-42.0684 75.5283-40.959Q76.5255-39.8497 78.0762-39.8497Q78.8612-39.8497 79.6425-40.1933Q80.4237-40.5369 81.2795-41.2952Q82.9493-42.6914 84.6916-43.5577Q86.4338-44.4239 88.7561-44.4239Q92.803-44.4239 95.3857-41.7725Q97.9685-39.121 97.9685-34.7967Q97.9685-30.4377 95.3857-27.8038Q92.803-25.1701 88.7561-25.1701Q86.4338-25.1701 84.6916-26.0361Q82.9493-26.9021 81.2795-28.2989Q80.4237-29.035 79.6425-29.372Q78.8612-29.7089 78.0762-29.7089Q76.5255-29.7089 75.5283-28.6173Q74.531-27.5257 74.531-25.7244L74.531-9.18342Q74.531-6.37876 72.8338-4.72343Q71.1367-3.0681 68.2676-3.0681L19.3477-3.0681Q16.4787-3.0681 14.7746-4.72343Q13.0704-6.37876 13.0704-9.18342Z"/>
  </g>
  <g id="Ultralight-S" transform="matrix(1 0 0 1 506.104 696)">
   <path d="M9.76562-8.74176Q9.76562-4.95758 12.117-2.63252Q14.4684-0.307465 18.399-0.307465L68.3243-0.307465Q72.2511-0.307465 74.6025-2.63252Q76.9539-4.95758 76.9539-8.74176L76.9539-25.174Q76.9539-25.9735 77.5162-26.3226Q78.0785-26.6716 78.8811-26.1032Q80.5092-24.9245 82.6332-23.6015Q84.7572-22.2786 88.5338-22.2786Q92.0593-22.2786 94.7372-23.8163Q97.4152-25.354 98.8964-28.154Q100.378-30.954 100.378-34.6634Q100.378-38.3766 98.8964-41.1522Q97.4152-43.9278 94.7372-45.488Q92.0593-47.0482 88.5338-47.0482Q84.7572-47.0482 82.6332-45.7047Q80.5092-44.3611 78.8811-43.1786Q78.0785-42.6132 77.5162-42.9852Q76.9539-43.3571 76.9539-44.1109L76.9539-61.8637Q76.9539-65.6479 74.6025-67.9729Q72.2511-70.298 68.3243-70.298L18.399-70.298Q14.4684-70.298 12.117-67.9729Q9.76562-65.6479 9.76562-61.8637L9.76562-43.9804Q9.76562-42.437 10.619-41.6744Q11.4723-40.9119 12.8494-40.9119Q13.5216-40.9119 14.1518-41.1972Q14.782-41.4825 15.5907-42.1516Q17.363-43.5997 19.1719-44.5122Q20.9808-45.4247 23.539-45.4247Q27.8831-45.4247 30.5431-42.6418Q33.2031-39.859 33.2031-35.2539Q33.2031-30.6488 30.5431-27.866Q27.8831-25.0832 23.539-25.0832Q20.9808-25.0832 19.1719-25.9956Q17.363-26.9081 15.5907-28.3562Q14.782-29.0253 14.1518-29.3106Q13.5216-29.5959 12.8494-29.5959Q11.4723-29.5959 10.619-28.8334Q9.76562-28.0708 9.76562-26.5274ZM11.9835-8.81424L11.9835-26.2093Q11.9835-27.0386 12.545-27.1576Q13.1065-27.2766 13.913-26.7113Q15.58-25.5432 17.6659-24.2062Q19.7517-22.8691 23.5634-22.8691Q27.0889-22.8691 29.744-24.4068Q32.399-25.9445 33.9016-28.7426Q35.4042-31.5407 35.4042-35.2539Q35.4042-38.9671 33.9016-41.7652Q32.399-44.5633 29.744-46.101Q27.0889-47.6387 23.5634-47.6387Q19.7517-47.6387 17.6659-46.3017Q15.58-44.9646 13.913-43.7965Q13.1065-43.2312 12.545-43.3502Q11.9835-43.4692 11.9835-44.2986L11.9835-61.7912Q11.9835-64.6164 13.7646-66.3486Q15.5457-68.0809 18.4967-68.0809L68.2266-68.0809Q71.1777-68.0809 72.9568-66.3486Q74.736-64.6164 74.736-61.7912L74.736-43.8477Q74.736-42.3042 75.5898-41.3128Q76.4435-40.3214 77.8198-40.3214Q78.492-40.3214 79.1451-40.6086Q79.7981-40.8958 80.5618-41.5619Q82.3341-43.0092 84.1431-43.9217Q85.952-44.8341 88.5101-44.8341Q92.8543-44.8341 95.5139-42.0288Q98.1735-39.2235 98.1735-34.6634Q98.1735-30.0583 95.5139-27.2758Q92.8543-24.4934 88.5101-24.4934Q85.952-24.4934 84.1431-25.4055Q82.3341-26.3176 80.5618-27.7657Q79.7981-28.389 79.1451-28.6747Q78.492-28.9604 77.8198-28.9604Q76.4435-28.9604 75.5898-27.9919Q74.736-27.0233 74.736-25.4372L74.736-8.81424Q74.736-5.98907 72.9568-4.25682Q71.1777-2.52457 68.2266-2.52457L18.4967-2.52457Q15.5457-2.52457 13.7646-4.25682Q11.9835-5.98907 11.9835-8.81424Z"/>
  </g>
 </g>
</svg>
